<?xml version="1.0" standalone="no"?>
<!DOCTYPE svg PUBLIC "-//W3C//DTD SVG 1.1//EN" "http://www.w3.org/Graphics/SVG/1.1/DTD/svg11.dtd" >
<svg xmlns="http://www.w3.org/2000/svg" xmlns:xlink="http://www.w3.org/1999/xlink" version="1.1">
<metadata></metadata>
<defs>
<font id="cormorant_garamondmedium" horiz-adv-x="1568" >
<font-face units-per-em="2048" ascent="1638" descent="-410" />
<missing-glyph horiz-adv-x="479" />
<glyph horiz-adv-x="0" />
<glyph horiz-adv-x="682" />
<glyph unicode=" "  horiz-adv-x="479" />
<glyph unicode="&#x09;" horiz-adv-x="479" />
<glyph unicode="&#xa0;" horiz-adv-x="479" />
<glyph unicode="!" horiz-adv-x="512" d="M150 74q0 41 26.5 65.5t69.5 24.5q45 0 69.5 -23.5t24.5 -66.5q0 -45 -24.5 -71t-69.5 -26q-43 0 -69.5 26t-26.5 71zM154 1268q-2 8 30.5 14t71.5 6t71.5 -6t30.5 -14q-33 -160 -49 -336t-35 -473l-4 -72q0 -6 -18 -6t-19 6q-14 299 -29.5 502t-49.5 379z" />
<glyph unicode="&#x22;" horiz-adv-x="585" d="M82 1245q-2 23 53 44.5t94 21.5q23 0 21 -11l-111 -550q-4 -4 -14 -6.5t-10 4.5zM377 1245q-2 23 53 44.5t94 21.5q23 0 21 -11l-111 -550q-4 -4 -14 -6.5t-10 4.5z" />
<glyph unicode="#" horiz-adv-x="1077" d="M119 201q0 14 2 26.5t6 12.5h154l57 323h-137q-4 0 -7.5 13.5t-3.5 29.5q0 14 2.5 26.5t6.5 12.5h153l62 342q0 10 40 1t38 -17l-58 -326h301l62 342q0 10 40 1t37 -17l-57 -326h131q4 0 7 -13.5t3 -27.5t-3 -27.5t-7 -13.5h-145l-58 -323h132q4 0 7 -13.5t3 -27.5 q0 -16 -3 -29.5t-7 -13.5h-146l-57 -320q0 -6 -19 -6q-18 0 -40.5 5t-20.5 11l55 310h-301l-57 -320q0 -6 -19 -6q-18 0 -40.5 5t-20.5 11l55 310h-137q-4 0 -7 14t-3 31zM362 240h302l57 323h-301z" />
<glyph unicode="$" horiz-adv-x="845" d="M117 295q0 8 10 10t14 -6q33 -106 107 -188t168 -99v426l-33 19q-121 63 -183.5 121.5t-62.5 154.5q0 106 80 172t199 76v168q0 8 7 12t17 4q8 0 15.5 -4t7.5 -12v-166q111 -4 203 -47q20 -8 25 -14.5t5 -20.5l13 -182q0 -8 -11.5 -10t-13.5 6q-14 70 -74.5 141.5 t-146.5 89.5v-389l37 -18q86 -45 137 -79t87 -85t36 -121q0 -109 -81 -185.5t-216 -91.5v-186q0 -14 -23 -14q-25 0 -24 14v184h-4q-74 0 -141.5 18.5t-116.5 53.5q-16 10 -17 41zM256 793q0 -70 42 -118t118 -91v366q-76 0 -118 -44t-42 -113zM463 10q69 4 118.5 45 t49.5 125q0 76 -44 129t-124 103v-402z" />
<glyph unicode="%" horiz-adv-x="1175" d="M51 887q0 109 74 184.5t182 75.5q109 0 179.5 -77t70.5 -189q0 -111 -70.5 -185.5t-179.5 -74.5q-110 0 -183 76.5t-73 189.5zM168 16l760 1114l4 3q10 0 29.5 -13.5t17.5 -19.5l-760 -1112h-2q-10 0 -30.5 11t-18.5 17zM180 893q0 -115 32 -181.5t110 -66.5 q65 0 85.5 55.5t20.5 165.5q0 256 -133 256q-66 0 -90.5 -60.5t-24.5 -168.5zM618 256q0 109 74 185.5t182 76.5q109 0 179.5 -78t70.5 -188q0 -111 -70.5 -186.5t-179.5 -75.5q-110 0 -183 76.5t-73 189.5zM748 264q0 -248 141 -248q65 0 85.5 55.5t20.5 166.5 q0 254 -133 254q-66 0 -90 -60.5t-24 -167.5z" />
<glyph unicode="&#x26;" horiz-adv-x="1433" d="M131 279q0 115 72.5 200.5t208.5 184.5q-37 55 -60 102q-59 125 -59 223q0 92 44 168t123 121t183 45q102 0 174 -48t72 -155q0 -80 -41 -144.5t-100.5 -112.5t-161.5 -115l-37 -25q152 -233 436 -453q59 115 59 258q0 82 -31.5 122t-117.5 40q-6 0 -7 12.5t7 12.5l438 2 q8 0 8 -12.5t-8 -12.5q-68 0 -101.5 -13t-48 -38t-28.5 -76q-55 -193 -137 -319q125 -90 235.5 -147.5t184.5 -73.5q8 -2 7 -13.5t-7 -11.5h-242q-86 0 -266 137q-162 -162 -410 -162q-129 0 -217 42t-130 112t-42 150zM276 358q0 -84 44.5 -156.5t124 -115.5t180.5 -43 q161 0 278 117q-27 18 -47 37q-123 98 -234.5 212.5t-189.5 227.5q-74 -61 -115 -128t-41 -151zM424 1092q-1 -160 108 -340q104 82 161 158.5t57 174.5q0 90 -47.5 141.5t-127.5 51.5q-152 0 -151 -186z" />
<glyph unicode="'" horiz-adv-x="290" d="M82 1245q-2 23 53 44.5t94 21.5q23 0 21 -11l-111 -550q-4 -4 -14 -6.5t-10 4.5z" />
<glyph unicode="(" horiz-adv-x="632" d="M125 623q0 290 114.5 521.5t321.5 340.5q4 2 8 -3t0 -9q-147 -145 -216.5 -356.5t-69.5 -493.5q0 -283 69.5 -494t216.5 -356q4 -2 0 -8.5t-8 -4.5q-207 111 -321.5 341.5t-114.5 521.5z" />
<glyph unicode=")" horiz-adv-x="632" d="M63 -227q147 145 217 356t70 494t-69.5 493.5t-217.5 356.5q-4 2 0.5 8t8.5 4q207 -111 321.5 -341.5t114.5 -520.5q0 -291 -114.5 -522.5t-321.5 -340.5q-4 -2 -8.5 3.5t-0.5 9.5z" />
<glyph unicode="*" horiz-adv-x="917" d="M117 831l305 175l4 2q4 0 9 -6.5t3 -8.5l-149 -215q-7 -8 -25 -8q-27 0 -65.5 13.5t-64 28.5t-17.5 19zM141 1202q0 41 6.5 76t14.5 27l262 -240q4 -2 1 -11.5t-7 -6.5l-254 75q-23 8 -23 80zM457 1346q0 18 43 36.5t88 24.5t41 -4l-146 -320q-2 -6 -11 -6t-9 6zM477 985 v2q0 4 7.5 10.5t9.5 1.5l159 -211q10 -14 -13.5 -54t-56 -72.5t-34.5 -20.5zM507 1039.5q-3 9.5 1 11.5l250 88q18 6 48 -30t50.5 -77t7.5 -41l-350 39q-4 0 -7 9.5z" />
<glyph unicode="+" horiz-adv-x="815" d="M59 391q0 14 2 26.5t7 12.5h297v295q0 4 13 7t30 3q16 0 29.5 -3t13.5 -7v-295h294q5 0 8 -13.5t3 -27.5q0 -16 -3 -29.5t-8 -13.5h-294v-295q0 -4 -16.5 -7t-33.5 -3q-37 0 -36 6v299h-295q-4 0 -7.5 14.5t-3.5 30.5z" />
<glyph unicode="," horiz-adv-x="454" d="M106 70q0 43 27 65.5t76 22.5q63 0 99 -48.5t36 -136.5q0 -84 -38 -155.5t-111 -143.5q-2 -2 -7 -2q-6 0 -10 6.5t0 10.5q100 102 101 241q0 57 -21 84q-18 -31 -65 -30q-39 0 -63 23.5t-24 62.5z" />
<glyph unicode="-" horiz-adv-x="661" d="M55 385q0 39 6 39l535 96q4 2 7 -12t3 -31q0 -16 -3 -30.5t-7 -16.5l-530 -96q-5 -2 -8 15.5t-3 35.5z" />
<glyph unicode="." horiz-adv-x="407" d="M109 74q0 41 26.5 65.5t69.5 24.5q45 0 69.5 -23.5t24.5 -66.5q0 -45 -24.5 -71t-69.5 -26q-43 0 -69.5 26t-26.5 71z" />
<glyph unicode="/" horiz-adv-x="702" d="M53 -311l516 1806q4 8 44 -4t36 -23l-514 -1804q-2 -8 -43 4.5t-39 20.5z" />
<glyph unicode="0" horiz-adv-x="976" d="M68 401q0 121 54 215.5t151.5 147.5t220.5 53q121 0 215 -54t147 -150.5t53 -217.5t-53 -217t-148.5 -150.5t-215.5 -54.5q-121 0 -218.5 55.5t-151.5 153t-54 219.5zM223 420q0 -184 80 -300t211 -116q117 0 177.5 98.5t60.5 266.5q0 207 -80 312t-199 105t-184.5 -101 t-65.5 -265z" />
<glyph unicode="1" horiz-adv-x="679" d="M96 12.5q0 12.5 6 12.5q74 0 111 11t50 39.5t13 90.5v459q0 63 -12 91.5t-48 39t-114 10.5q-6 0 -6 12.5t6 12.5q61 0 97 -3l141 -2l139 2q37 2 99 3q6 0 6 -12.5t-6 -12.5q-74 0 -111 -11.5t-50.5 -40t-13.5 -89.5v-459q0 -63 12.5 -92t48.5 -39t114 -10q6 0 6 -12.5 t-6 -12.5q-61 0 -97 2l-141 2l-139 -2q-37 -2 -99 -2q-6 0 -6 12.5z" />
<glyph unicode="2" horiz-adv-x="823" d="M74 13.5q-6 13.5 2 21.5q180 147 275 240.5t137 164t42 142.5q0 82 -49 134t-127 52q-156 0 -231 -256q0 -2 -8 -2q-18 0 -17 8l82 318q0 4 8 4q6 0 11.5 -3t3.5 -6q-2 -8 -2 -22q0 -33 30 -33q16 0 64 15q84 27 149 26q106 0 168 -55t62 -146q0 -76 -49.5 -148.5 t-133 -146t-243.5 -196.5q-6 -6 -3 -10t13 -4q211 0 299 7t129 32.5t55 89.5q0 4 11 4q14 0 14 -6l-33 -215q0 -8 -5 -15.5t-13 -7.5h-625q-10 0 -16 13.5z" />
<glyph unicode="3" horiz-adv-x="798" d="M66 535l75 299q4 4 9 4q6 0 12 -3.5t4 -5.5q-4 -16 -4 -22q0 -35 35 -35q25 0 63 16q47 14 80 21.5t74 7.5q115 0 180 -68.5t65 -164.5q0 -98 -59 -186.5t-160 -131.5q138 -14 208.5 -95t70.5 -189q0 -100 -65.5 -205t-201 -195t-333.5 -145q-8 -2 -13.5 9t3.5 13 q242 78 346 217.5t104 280.5q0 113 -57.5 188.5t-171.5 75.5q-45 0 -99 -12q-6 -2 -10 10t4 14q156 39 222.5 114t66.5 202q0 104 -42 162.5t-126 58.5q-182 0 -256 -242q-2 -2 -8 -2q-18 0 -16 9z" />
<glyph unicode="4" horiz-adv-x="925" d="M45 24.5q-6 8.5 2 16.5l604 770q4 4 13 4q6 0 12 -3t6 -9v-717l168 6q8 0 8 -39q0 -18 -3 -34.5t-7 -16.5q-55 4 -166 8v-317q0 -23 -16 -29l-99 -49l-12 -4q-6 0 -6 16v385q-127 4 -488 4q-10 0 -16 8.5zM156 94q-12 -14 10 -14q170 0 383 4v506z" />
<glyph unicode="5" horiz-adv-x="837" d="M119 367l65 364q2 14 6.5 17.5t20.5 5.5q258 31 346 43t113.5 25.5t36.5 43.5q2 6 13 5t9 -9l-41 -164q-8 -25 -19.5 -30.5t-37.5 -5.5l-387 -9q-27 1 -31 -30l-41 -222q285 -2 418 -104t133 -279q0 -117 -59.5 -212t-186.5 -184t-338 -185h-2q-8 0 -13 9t3 13 q246 125 346 252t100 273q0 170 -112.5 264t-321.5 94q-10 0 -16 7t-4 18z" />
<glyph unicode="6" horiz-adv-x="952" d="M92 426q0 193 87 376t252 328.5t388 223.5q8 2 12.5 -8.5t-2.5 -14.5q-190 -88 -323 -230.5t-200.5 -309t-67.5 -332.5q0 -190 78.5 -317.5t211.5 -127.5q94 0 152.5 69t58.5 187q0 111 -51 179.5t-149 68.5q-51 0 -94.5 -20.5t-100.5 -67.5q-2 -2 -6 -2q-6 0 -11 6 t-3 10q115 137 290 138q138 0 204.5 -75t66.5 -181q0 -96 -56.5 -177t-150.5 -128.5t-207 -47.5q-176 0 -277.5 119t-101.5 334z" />
<glyph unicode="7" horiz-adv-x="878" d="M45 541l74 305q2 4 14 3t10 -5q-2 -8 -2 -21q0 -20 19.5 -26t79.5 -6h542q8 0 15.5 -9.5t3.5 -17.5l-463 -1208q-8 -19 -17.5 -29t-25.5 -21l-115 -69q-4 -2 -10 4t-4 10l545 1208q6 14 -11 15q-301 0 -418.5 -8.5t-155.5 -35t-58 -95.5q0 -4 -9 -5q-6 0 -11 3.5t-3 7.5z " />
<glyph unicode="8" horiz-adv-x="1001" d="M92 307q0 117 79 222.5t200 166.5q-78 49 -120 103.5t-42 128.5q0 80 49 136t123 84t149 28q84 0 147.5 -32t97.5 -81t34 -102q0 -66 -51 -133.5t-146 -122.5q101 -54 166.5 -101t109.5 -114.5t44 -157.5q0 -100 -59.5 -182t-159 -129.5t-217.5 -47.5q-119 0 -211 46.5 t-142.5 123t-50.5 164.5zM240 362q0 -92 39.5 -171.5t110.5 -129t161 -49.5q111 0 180.5 70t69.5 182q0 92 -44 157.5t-106.5 108.5t-169.5 101l-82 47q-76 -53 -117.5 -136t-41.5 -180zM334 993q0 -59 33.5 -107t83 -82t139.5 -87q92 98 92 211q0 96 -54.5 154.5 t-135.5 58.5q-70 0 -114 -40t-44 -108z" />
<glyph unicode="9" horiz-adv-x="952" d="M68 500q0 92 49 163.5t135 112.5t192 41q190 0 303 -130t113 -345q0 -186 -87 -368.5t-252 -326t-388 -210.5q-6 -2 -11 8t3 14q188 78 321.5 217.5t201 304t67.5 320.5q0 109 -32 218.5t-99.5 184t-171.5 74.5q-94 0 -146.5 -63.5t-52.5 -173.5q0 -113 55.5 -185.5 t159.5 -72.5q49 0 90 16t90 57q2 2 6 2q6 0 12.5 -6t4.5 -10q-104 -121 -275 -121q-98 0 -162.5 42t-95 105.5t-30.5 131.5z" />
<glyph unicode=":" horiz-adv-x="407" d="M109 74q0 41 26.5 65.5t69.5 24.5q45 0 69.5 -23.5t24.5 -66.5q0 -45 -24.5 -71t-69.5 -26q-43 0 -69.5 26t-26.5 71zM109 649q0 41 26.5 65.5t69.5 24.5q45 0 69.5 -23.5t24.5 -66.5q0 -45 -24.5 -70.5t-69.5 -25.5q-43 0 -69.5 25.5t-26.5 70.5z" />
<glyph unicode=";" horiz-adv-x="460" d="M113 70q0 43 26.5 65.5t75.5 22.5q64 0 99.5 -48.5t35.5 -136.5q0 -84 -38 -155.5t-111 -143.5q-2 -2 -6 -2q-6 0 -10.5 6.5t-0.5 10.5q100 102 101 241q0 57 -21 84q-18 -31 -65 -30q-39 0 -62.5 23.5t-23.5 62.5zM113 649q0 41 26.5 65.5t69.5 24.5q45 0 69.5 -23.5 t24.5 -66.5q0 -45 -24.5 -70.5t-69.5 -25.5q-43 0 -69.5 25.5t-26.5 70.5z" />
<glyph unicode="&#x3c;" horiz-adv-x="833" d="M63 389q0 31 11 35l684 301q14 8 14 -35q0 -41 -14 -49l-586 -252l586 -252q14 -6 14 -49t-14 -37l-684 303q-10 6 -11 35z" />
<glyph unicode="=" horiz-adv-x="958" d="M59 248q0 14 2 26.5t7 12.5h821q4 0 7 -13.5t3 -27.5q0 -16 -3 -29.5t-7 -13.5h-819q-4 0 -7.5 14t-3.5 31zM59 535q0 14 2 26t7 12h821q4 0 7 -13t3 -28q0 -16 -3 -29.5t-7 -13.5h-819q-4 0 -7.5 14.5t-3.5 31.5z" />
<glyph unicode="&#x3e;" horiz-adv-x="833" d="M61 86q0 16 4.5 31.5t10.5 17.5l586 252l-586 252q-6 2 -10.5 17.5t-4.5 31.5q0 18 4.5 29.5t10.5 7.5l684 -303q10 -4 10 -35q0 -29 -10 -35l-684 -301q-6 -2 -10.5 8.5t-4.5 26.5z" />
<glyph unicode="?" horiz-adv-x="677" d="M82 1133q0 59 73.5 103t176.5 44q123 0 203.5 -63.5t80.5 -182.5q0 -61 -23.5 -108t-48 -74t-91.5 -90q-70 -68 -98.5 -125t-28.5 -129q0 -45 12 -111q2 -6 -11.5 -9t-15.5 3q-23 53 -38 126t-15 120q0 63 24.5 105t71.5 92q53 53 81 101t28 126q0 84 -38 137t-97 53 q-45 0 -61.5 -25.5t-22.5 -68.5q-6 -45 -24.5 -72.5t-61.5 -27.5q-35 0 -55.5 23.5t-20.5 52.5zM207 74q0 41 26.5 65.5t69.5 24.5q45 0 69.5 -23.5t24.5 -66.5q0 -45 -24.5 -71t-69.5 -26q-43 0 -69.5 26t-26.5 71z" />
<glyph unicode="@" horiz-adv-x="1476" d="M147 356q0 188 94.5 338t249 235t328.5 85q154 0 271.5 -63.5t182 -172t64.5 -235.5q0 -115 -52 -215.5t-140 -161t-189 -60.5q-116 0 -116 121q0 29 6 60l16 86q-72 -123 -156.5 -197t-160.5 -74q-49 0 -79 31t-30 98q0 23 2 37q16 111 85 218.5t161 175t172 67.5 q68 0 98 -43q14 10 26.5 25.5t14.5 31.5q4 4 17 5q25 0 20 -7l-84 -458q-6 -31 -6 -58q0 -37 17.5 -56t58.5 -19q55 0 110.5 39.5t91 115.5t35.5 178q0 131 -66.5 243t-181 176.5t-255.5 64.5q-156 0 -270.5 -77t-176 -204t-61.5 -278q0 -164 70.5 -287t198.5 -190.5 t294 -67.5q98 0 175 20.5t167 75.5h2q4 0 9 -7t1 -9q-182 -145 -420 -146q-166 0 -301 67.5t-214 193.5t-79 298zM553 274q0 -82 55 -81q51 0 111.5 54t109 139t66.5 169q4 25 4 35q0 41 -20.5 66.5t-59.5 25.5q-51 0 -105.5 -47t-97.5 -126t-57 -167q-6 -37 -6 -68z" />
<glyph unicode="A" horiz-adv-x="1441" d="M-10 12.5q0 12.5 10 12.5q57 0 97 21.5t77 76.5t82 162l432 1011q4 6 17 7q12 0 14 -7l487 -1015q70 -150 119 -203t113 -53q8 0 8 -12.5t-8 -12.5q-39 0 -121 4t-121 4q-47 0 -117 -4q-66 -4 -102 -4q-8 0 -8 12.5t8 12.5q74 0 105.5 13t31.5 48q0 31 -29 92l-176 369 h-489l-121 -281q-27 -61 -27 -112q0 -129 199 -129q10 0 10 -12.5t-10 -12.5q-37 0 -106 4q-78 4 -136 4q-51 0 -125 -4q-61 -4 -104 -4q-10 0 -10 12.5zM438 590h451l-238 495z" />
<glyph unicode="B" horiz-adv-x="1157" d="M84 12.5q0 12.5 4 12.5q74 0 109.5 11t49 39.5t13.5 90.5v948q0 61 -12 90t-47 40t-109 11q-6 0 -6 12.5t6 12.5l101 -2q86 -4 141 -4q37 0 68.5 2t54.5 4q63 6 121 6q176 0 264 -73.5t88 -196.5q0 -98 -63.5 -175t-176.5 -120q164 -14 263.5 -109.5t99.5 -234.5 q0 -109 -55.5 -197t-150.5 -138t-214 -50q-66 0 -144 6q-29 2 -67.5 4t-87.5 2l-141 -2q-39 -2 -105 -2q-4 0 -4 12.5zM410 166q0 -51 15 -80t56 -42t121 -13q148 0 219.5 76.5t71.5 218.5q0 156 -89 251t-247 97h-31q-49 0 -116 -4v-504zM410 721l92 -3q141 0 209.5 78 t68.5 205q0 115 -59 183.5t-184 68.5q-52 0 -77.5 -9t-37.5 -39.5t-12 -94.5v-389z" />
<glyph unicode="C" horiz-adv-x="1402" d="M100 645q0 193 96.5 342.5t267.5 232.5t384 83q123 0 212 -17.5t175 -58.5q14 -8 17 -15.5t5 -31.5l27 -250q0 -6 -11 -8t-13 6q-100 342 -424 342q-166 0 -293 -76t-198 -216t-71 -327q0 -180 77 -327.5t208 -231.5t287 -84q162 0 265 81t165 251q2 6 12 4t10 -6 l-20 -229q-4 -25 -7 -32t-18 -16q-104 -49 -198 -68.5t-211 -19.5q-215 0 -384 85t-264.5 238t-95.5 349z" />
<glyph unicode="D" horiz-adv-x="1421" d="M66 12.5q0 12.5 4 12.5q76 0 110.5 10t48 39.5t13.5 91.5v948q0 61 -12.5 90t-47.5 40t-110 11q-4 0 -4 12.5t4 12.5l102 -2q90 -4 141 -4q78 0 154 6q98 4 131 4q213 0 377 -82t254 -223t90 -317q0 -199 -93 -351.5t-252 -235.5t-347 -83q-62 0 -142 6q-31 2 -74.5 4 t-97.5 2l-141 -2q-39 -2 -104 -2q-4 0 -4 12.5zM391 188q0 -90 44 -126.5t173 -36.5q158 0 280 68.5t190.5 202.5t68.5 320q0 178 -65.5 322.5t-185.5 228.5t-278 84q-88 0 -135 -10t-69.5 -40t-22.5 -91v-922z" />
<glyph unicode="E" horiz-adv-x="1105" d="M84 12.5q0 12.5 4 12.5q76 0 110.5 10t47 39.5t12.5 91.5v948q0 61 -12.5 90t-47 40t-110.5 11q-4 0 -4 12.5t4 12.5h832q18 0 18 -18l4 -256q0 -6 -11 -6.5t-11 6.5q-12 111 -76 170t-166 59h-113q-96 0 -126.5 -26.5t-30.5 -102.5v-418h235q102 0 148.5 35t46.5 113 q0 4 12 4t12 -4l-2 -170q0 -59 2 -91l2 -102q0 -4 -12 -4t-12 4q0 90 -47.5 130t-153.5 40h-231v-469q0 -53 12 -79.5t43 -38t94 -11.5h145q109 0 180.5 68.5t98.5 193.5q0 6 12.5 5t12.5 -7q-18 -133 -19 -274q0 -16 -7 -23.5t-26 -7.5h-866q-4 0 -4 12.5z" />
<glyph unicode="F" horiz-adv-x="1048" d="M78 12.5q0 12.5 6 12.5q76 0 111.5 10t49 39.5t13.5 91.5v948q0 61 -12.5 90t-47 40t-110.5 11q-4 0 -4 12.5t4 12.5h832q18 0 18 -18l4 -256q0 -6 -11 -6.5t-11 6.5q-12 111 -76 170t-166 59h-113q-92 0 -124.5 -25.5t-32.5 -97.5v-448h196q111 0 160 35.5t49 111.5 q0 4 12.5 4t12.5 -4l-2 -170q0 -59 2 -90l2 -102q0 -4 -12.5 -4.5t-12.5 4.5q0 90 -51 129.5t-166 39.5h-190v-444q0 -66 17 -95.5t67.5 -41.5t158.5 -12q4 0 4 -12.5t-4 -12.5q-84 0 -131 2l-190 2l-140 -2q-39 -2 -106 -2q-6 0 -6 12.5z" />
<glyph unicode="G" horiz-adv-x="1468" d="M100 645q0 197 101.5 346.5t277.5 230.5t395 81q109 0 204.5 -19.5t156.5 -56.5q16 -8 19 -13.5t6 -31.5l26 -248q0 -6 -11 -8t-13 4q-45 150 -151.5 244t-283.5 94q-156 0 -281.5 -72t-198.5 -207t-73 -313t72 -330.5t212 -246t337 -93.5q141 0 197.5 54.5t56.5 195.5 q0 106 -13.5 148t-57.5 56.5t-156 14.5q-12 0 -13 17q0 6 3 11t8 5q164 -10 264 -10q96 0 205 6q8 0 9 -14.5t-9 -14.5h-11q-40 0 -58 -13q-20 -16 -26 -63t-6 -163q0 -92 7.5 -131t7.5 -50q0 -12 -4.5 -16t-18.5 -8q-254 -55 -438 -56q-228 0 -395.5 90.5t-257 243 t-89.5 336.5z" />
<glyph unicode="H" horiz-adv-x="1556" d="M66 12.5q0 12.5 4 12.5q78 0 113.5 10t49 39.5t13.5 91.5v948q0 61 -13.5 90t-49.5 40t-111 11q-4 0 -4 12.5t4 12.5l104 -2q86 -4 141 -4q61 0 156 4l100 2q4 0 4.5 -12.5t-4.5 -12.5q-78 0 -114.5 -12t-50 -42t-13.5 -91v-422h764v422q0 61 -13 91t-50 42t-115 12 q-6 0 -6 12.5t6 12.5l96 -2q90 -4 158 -4q55 0 145 4l103 2q6 0 6 -12.5t-6 -12.5q-78 0 -114 -11t-49 -39.5t-13 -90.5v-948q0 -61 13 -91t49 -40t114 -10q6 0 6 -12.5t-6 -12.5q-66 0 -103 2l-145 2l-158 -2q-35 -2 -96 -2q-6 0 -6 12.5t6 12.5q80 0 116 10t49 39.5 t13 91.5v477h-764v-477q0 -61 13.5 -91t49.5 -40t115 -10q4 0 4.5 -12.5t-4.5 -12.5q-66 0 -102 2l-154 2l-143 -2q-37 -2 -104 -2q-4 0 -4 12.5z" />
<glyph unicode="I" horiz-adv-x="684" d="M88 12.5q0 12.5 6 12.5q76 0 111 10t48 39.5t13 91.5v948q0 61 -13 90t-48 40t-111 11q-6 0 -6 12.5t6 12.5l105 -2q86 -4 141 -4q59 0 149 4l99 2q4 0 4 -12.5t-4 -12.5q-74 0 -110 -12t-48 -42t-12 -91v-944q0 -64 12 -92.5t47 -38.5t111 -10q4 0 4 -12.5t-4 -12.5 q-63 0 -101 2l-147 2l-141 -2q-39 -2 -105 -2q-6 0 -6 12.5z" />
<glyph unicode="J" horiz-adv-x="665" d="M-98 -406q0 33 20.5 54.5t54.5 21.5q37 0 57.5 -18.5t41.5 -52.5q18 -31 32.5 -44.5t38.5 -13.5q68 0 102 83t34 265v1225q0 61 -15.5 90t-55.5 40t-126 11q-4 0 -4 12.5t4 12.5l121 -2q94 -4 149 -4q53 0 136 4l88 2q4 0 4 -12.5t-4 -12.5q-66 0 -95.5 -12t-40 -42 t-10.5 -91v-1159q0 -207 -97 -328t-280 -121q-72 0 -113.5 24.5t-41.5 67.5z" />
<glyph unicode="K" horiz-adv-x="1333" d="M66 12.5q0 12.5 4 12.5q76 0 110.5 10t48 39.5t13.5 91.5v948q0 61 -12.5 90t-47.5 40t-110 11q-4 0 -4 12.5t4 12.5l102 -2q90 -4 141 -4q59 0 146 4l100 2q4 0 4 -12.5t-4 -12.5q-74 0 -109.5 -12t-48 -42t-12.5 -91v-434l428 430q66 70 66 102q0 47 -121 47 q-4 0 -4 12.5t4 12.5l90 -2q82 -4 154 -4t145 4l80 2q6 0 6 -12.5t-6 -12.5q-86 0 -184.5 -39.5t-180.5 -121.5l-307 -306l295 -380q147 -193 224 -273t120 -95t121 -15q6 0 6 -12.5t-6 -12.5h-229q-18 0 -62 -1h-1q-45 0 -141 129q-97 130 -128 169l-305 387l-64 -61v-457 q0 -63 12.5 -92t47 -39t110.5 -10q6 0 6 -12.5t-6 -12.5q-66 0 -100 2l-146 2l-141 -2q-39 -2 -104 -2q-4 0 -4 12.5z" />
<glyph unicode="L" horiz-adv-x="1095" d="M66 12.5q0 12.5 4 12.5q76 0 110.5 10t47 39.5t12.5 91.5v948q0 61 -12.5 90t-47.5 40t-110 11q-4 0 -4 12.5t4 12.5l102 -2q86 -4 141 -4q59 0 146 4l100 2q4 0 4 -12.5t-4 -12.5q-74 0 -109.5 -11t-48 -40.5t-12.5 -91.5v-938q0 -57 11.5 -84t43 -36t101.5 -9h196 q123 0 202 75t104 204q0 6 11 5t11 -7q-18 -174 -18 -291q0 -16 -6.5 -23.5t-24.5 -7.5h-950q-4 0 -4 12.5z" />
<glyph unicode="M" horiz-adv-x="1718" d="M70 12.5q0 12.5 6 12.5q84 0 125 49t43 155l18 932q-61 94 -172 94q-6 0 -6 12.5t6 12.5l80 -2q23 -2 59 -2q41 0 69 2t44 2q27 0 43 -18.5t51 -87.5l457 -943l434 998q23 51 62 51q10 0 30.5 -2t53.5 -2l102 2q23 2 70 2q4 0 4 -12.5t-4 -12.5q-103 1 -147 -31 q-43 -30 -42 -107v-7l43 -944q4 -63 16.5 -92t46 -39t109.5 -10q6 0 6 -12.5t-6 -12.5q-66 0 -104 2l-142 2l-137 -2q-33 -2 -92 -2q-4 0 -4 12.5t4 12.5q70 0 102 11q32 12 44 40q9 21 9 60q0 14 -1 30l-39 911l-459 -1063q-4 -8 -16 -8q-10 0 -19 8l-506 1059l-16 -844 v-10q0 -101 38 -147q40 -48 134 -47q4 0 4 -12.5t-4 -12.5q-57 0 -88 2l-111 2l-110 -2q-29 -2 -82 -2q-6 0 -6 12.5z" />
<glyph unicode="N" horiz-adv-x="1490" d="M72 1267.5q0 12.5 6 12.5l76 -2q25 -2 69 -2l96 2q16 2 43 2q16 0 23.5 -7t24.5 -32q25 -37 49 -67l774 -938v813q0 106 -37 156t-121 50q-4 0 -4 12.5t4 12.5l80 -2q66 -4 105 -4t104 4l84 2q6 0 6 -12.5t-6 -12.5q-84 0 -124 -50t-40 -156v-1074q0 -6 -10 -8t-14 2 l-955 1143l-6 8v-891q0 -106 39 -155t121 -49q6 0 6 -12.5t-6 -12.5q-49 0 -78 2l-105 2l-108 -2q-31 -2 -88 -2q-4 0 -4 12.5t4 12.5q88 0 128 49t40 155v945q-83 81 -168 81h-2q-6 0 -6 12.5z" />
<glyph unicode="O" d="M100 639q0 211 106.5 361.5t273.5 226.5t341 76q195 0 342.5 -91.5t226 -241t78.5 -317.5q0 -186 -98 -341.5t-263 -246t-357 -90.5q-191 0 -339.5 89.5t-229.5 242t-81 332.5zM272 711q0 -193 70 -350.5t195 -249t284 -91.5q135 0 242.5 68t170 198t62.5 310 q0 190 -68.5 339.5t-195.5 233.5t-295 84q-219 0 -342 -144t-123 -398z" />
<glyph unicode="P" horiz-adv-x="1114" d="M78 12.5q0 12.5 6 12.5q74 0 108.5 10t47 39.5t12.5 91.5v948q0 61 -12.5 90t-47 40t-108.5 11q-6 0 -6 12.5t6 12.5l104 -2q86 -4 138 -4q49 0 116 6q25 0 77 3t91 3q190 0 306 -85t116 -257q0 -133 -66.5 -225t-170 -137t-213.5 -45q-59 0 -101 10q-4 0 -4 10q0 6 3 12 t7 4q31 -8 72 -8q127 0 215 88t88 254q0 162 -84 254t-221 92q-68 0 -98.5 -9t-44 -38.5t-13.5 -95.5v-936q0 -65 16.5 -95t65.5 -42t154 -12q6 0 6 -12.5t-6 -12.5q-84 0 -131 2l-178 2l-140 -2q-37 -2 -104 -2q-6 0 -6 12.5z" />
<glyph unicode="Q" d="M100 639q0 211 106.5 361.5t273.5 226.5t341 76q195 0 342.5 -91.5t226 -241t78.5 -317.5q0 -152 -65.5 -283.5t-179 -226t-258.5 -137.5q84 -152 223 -250t264 -98q47 0 74 6h2q4 0 7 -9t-1 -11q-102 -25 -172 -25q-143 0 -303 94t-275 262h-34q-190 0 -339 89.5 t-230 242t-81 332.5zM272 711q0 -193 70 -350.5t195 -249t284 -91.5q135 0 242.5 68t170 198t62.5 310q0 190 -68.5 339.5t-195.5 233.5t-295 84q-219 0 -342 -144t-123 -398z" />
<glyph unicode="R" horiz-adv-x="1388" d="M84 12.5q0 12.5 4 12.5q76 0 110.5 10t48 39.5t13.5 91.5v948q0 61 -12 90t-47 40t-109 11q-6 0 -6 12.5t6 12.5l101 -2q86 -4 141 -4q43 0 82 2t67 4q76 6 142 6q164 0 255 -72.5t91 -195.5q0 -111 -64.5 -201t-171.5 -141q172 -248 288 -387t207 -201.5t177 -62.5 q6 0 6 -12.5t-6 -12.5h-281q-49 0 -185 167t-333 466q-55 -10 -102 -10q-10 0 -96 6v-463q0 -63 12 -92t47 -39t111 -10q6 0 6 -12.5t-6 -12.5q-66 0 -101 2l-145 2l-141 -2q-39 -2 -105 -2q-4 0 -4 12.5zM410 678q57 -6 120 -6q154 0 219.5 68.5t65.5 213.5 q0 162 -67.5 230.5t-194.5 68.5q-80 0 -111.5 -29.5t-31.5 -113.5v-432z" />
<glyph unicode="S" horiz-adv-x="1013" d="M141 375q-2 8 9.5 10t13.5 -6q41 -152 129 -259.5t233 -107.5q100 0 168 53.5t68 174.5q0 92 -41 158.5t-99.5 112.5t-158.5 105q-100 63 -155.5 105.5t-94.5 107t-39 152.5q0 104 55.5 177t145.5 109t190 36q127 0 244 -48q31 -14 31 -36l12 -246q0 -8 -11.5 -10 t-13.5 6q-20 109 -91.5 205t-207.5 96q-109 0 -165 -63.5t-56 -159.5q0 -78 39 -137.5t94.5 -100.5t155.5 -100q104 -63 163.5 -108.5t101.5 -113t42 -159.5q0 -100 -50 -180t-146.5 -126.5t-227.5 -46.5q-166 0 -295 74q-10 6 -14 14.5t-6 24.5z" />
<glyph unicode="T" horiz-adv-x="1302" d="M78 948q8 57 18 184.5t10 192.5q0 10 12.5 10t12.5 -10q0 -45 111 -45q176 -6 411 -6q121 0 256 4l140 2q74 0 109.5 10t45.5 41q2 8 12.5 8t10.5 -8q-6 -59 -12.5 -183t-6.5 -200q0 -4 -11 -4t-13 4q-8 158 -72.5 225.5t-200.5 67.5q-82 0 -117.5 -8t-49 -35t-13.5 -88 v-944q0 -63 13.5 -92t53.5 -39t128 -10q4 0 4 -12.5t-4 -12.5q-70 0 -111 2l-162 2l-155 -2q-41 -2 -115 -2q-4 0 -4 12.5t4 12.5q86 0 127 10t55.5 39.5t14.5 91.5v948q0 59 -13.5 85t-49.5 34t-120 8q-127 0 -195.5 -68.5t-99.5 -224.5q-2 -6 -13 -5t-11 5z" />
<glyph unicode="U" horiz-adv-x="1431" d="M55 1267.5q0 12.5 4 12.5l103 -2q90 -4 141 -4q57 0 148 4l96 2q6 0 6 -12.5t-6 -12.5q-74 0 -109 -12t-47 -42t-12 -91v-580q0 -242 106.5 -367.5t300.5 -125.5q182 0 283.5 113.5t101.5 316.5v582q0 102 -46 154t-134 52q-6 0 -6 12.5t6 12.5l90 -2q70 -4 117 -4 q39 0 105 4l86 2q4 0 4 -12.5t-4 -12.5q-82 0 -123 -52t-41 -154v-580q0 -231 -133.5 -363.5t-356.5 -132.5q-152 0 -265.5 59.5t-177 169t-63.5 257.5v655q0 61 -12 90t-47 40t-111 11q-4 0 -4 12.5z" />
<glyph unicode="V" horiz-adv-x="1361" d="M-6 1267.5q0 12.5 6 12.5l70 -2q57 -4 96 -4q98 0 196 4q33 2 87 2q6 0 6 -12.5t-6 -12.5q-127 0 -127 -75q0 -29 18 -70l416 -905l350 885q16 45 16 73q0 47 -37.5 69.5t-119.5 22.5q-6 0 -6.5 12.5t6.5 12.5l90 -2q74 -4 133 -4q39 0 96 4l84 2q6 0 6 -12.5t-6 -12.5 q-143 0 -215 -176l-426 -1077q-2 -8 -22 -8q-16 0 -23 8l-510 1108q-37 78 -75 111.5t-97 33.5q-6 0 -6 12.5z" />
<glyph unicode="W" horiz-adv-x="1898" d="M-6 1267.5q0 12.5 6 12.5l70 -2q57 -4 96 -4q84 0 174 4q31 2 80 2q6 0 6 -12.5t-6 -12.5q-59 0 -87 -13t-28 -46q0 -31 25 -86l424 -909l174 436l-219 473q-35 78 -72 111.5t-90 33.5q-6 0 -6 12.5t6 12.5l69 -2q49 -4 89 -4q70 0 135 4q20 2 55 2q6 0 6 -12.5t-6 -12.5 q-37 0 -52.5 -7t-15.5 -25q0 -23 39 -113l140 -299l110 279q27 61 27 102q0 63 -82 63q-4 0 -4 12.5t4 12.5l45 -2q37 -4 90 -4q39 0 92 4l82 2q4 0 4 -12.5t-4 -12.5q-68 0 -119 -39.5t-88 -136.5l-131 -325l260 -553l350 882q16 45 17 78q0 94 -148 94q-6 0 -6 12.5 t6 12.5l88 -2q70 -4 125 -4q43 0 97 4l86 2q6 0 6 -12.5t-6 -12.5q-145 0 -215 -176l-426 -1077q-2 -8 -23 -8q-16 0 -22 8l-267 576l-227 -576q-2 -8 -22 -8q-16 0 -23 8l-510 1108q-39 84 -75 114.5t-97 30.5q-6 0 -6 12.5z" />
<glyph unicode="X" horiz-adv-x="1333" d="M25 12.5q0 12.5 6 12.5q68 0 142.5 51t148.5 151l274 375l-330 502q-55 82 -107.5 116.5t-119.5 34.5q-4 0 -4 12.5t4 12.5q25 0 82 -4l78 -2q70 0 168 4l110 2q6 0 6 -12.5t-6 -12.5q-51 0 -74.5 -8t-23.5 -28q0 -16 18 -45l297 -451l228 321q59 88 59 138 q0 35 -28.5 54t-86.5 19q-6 0 -6 12.5t6 12.5l97 -2q78 -4 141 -4q39 0 88 4l78 2q6 0 6 -12.5t-6 -12.5q-68 0 -145.5 -55t-155.5 -162l-254 -346l344 -522q53 -80 108.5 -112.5t137.5 -32.5q4 0 4 -12.5t-4 -12.5q-55 0 -86 2l-115 2l-160 -2q-37 -2 -102 -2q-4 0 -4 12.5 t4 12.5q51 0 74.5 8t23.5 26t-18 45l-306 465l-245 -346q-55 -76 -56 -125q0 -73 116 -73h3q6 0 6 -12.5t-6 -12.5q-61 0 -94 2l-143 2l-88 -2q-25 -2 -78 -2q-6 0 -6 12.5z" />
<glyph unicode="Y" horiz-adv-x="1251" d="M-6 1267.5q0 12.5 6 12.5l72 -2q49 -4 71 -4q70 0 181 4l114 2q4 0 4 -12.5t-4 -12.5q-100 0 -100 -47q0 -20 22 -53l322 -477l238 373q47 78 47 127q0 77 -108 77h-3q-4 0 -4 12.5t4 12.5l98 -2q82 -4 148 -4q35 0 84 4l76 2q4 0 4 -12.5t-4 -12.5q-72 0 -151 -58 t-140 -159l-264 -409v-463q0 -63 12 -92t46 -39t109 -10q6 0 6.5 -12.5t-6.5 -12.5q-63 0 -98 2l-145 2l-142 -2q-39 -2 -104 -2q-4 0 -4 12.5t4 12.5q76 0 110.5 10t48 39.5t13.5 91.5v430l-332 491q-61 94 -112.5 131t-112.5 37q-6 0 -6 12.5z" />
<glyph unicode="Z" horiz-adv-x="1222" d="M109 1016l81 325q0 2 9 2q20 0 16 -6q-2 -6 -2 -16q0 -25 23.5 -33t95.5 -8h747q10 0 15.5 -10t-0.5 -17l-783 -1198l-6 -12q0 -4 17 -4h501q264 0 307 244q2 4 12.5 4t10.5 -4l-29 -267q0 -6 -5 -13t-13 -7q-305 4 -979 4q-10 0 -14 9t2 18l792 1202q6 10 5 13t-15 3 q-340 0 -472 -12t-189.5 -57.5t-102.5 -163.5q0 -4 -8 -4q-6 0 -12.5 3t-3.5 5z" />
<glyph unicode="[" horiz-adv-x="561" d="M174 -217v1681q0 14 3 17.5t16 3.5h290q6 0 6 -12.5t-6 -12.5q-76 0 -112.5 -12t-50 -42t-13.5 -91v-1385q0 -61 13.5 -90.5t50.5 -42t112 -12.5q6 0 6 -12.5t-6 -12.5h-290q-12 0 -15.5 4.5t-3.5 18.5z" />
<glyph unicode="\" horiz-adv-x="702" d="M53 1468q-4 10 36 22.5t44 4.5l516 -1806q4 -8 -37 -20.5t-45 -4.5z" />
<glyph unicode="]" horiz-adv-x="561" d="M72 -227.5q0 12.5 6 12.5q76 0 112.5 12.5t50 42t13.5 90.5v1385q0 61 -13.5 91t-50 42t-112.5 12q-6 0 -6 12.5t6 12.5h291q12 0 15 -3t3 -18v-1681q0 -14 -3 -18.5t-15 -4.5h-291q-6 0 -6 12.5z" />
<glyph unicode="^" horiz-adv-x="802" d="M119 778l260 510q2 10 22 10t23 -10l258 -510v-2q0 -4 -8 -8t-10 0l-263 338l-262 -338q-2 -2 -6 -2t-10 5t-4 7z" />
<glyph unicode="_" horiz-adv-x="815" d="M59 -113q0 14 3.5 27.5t5.5 13.5h677q4 0 7.5 -13t3.5 -30q0 -16 -3 -29.5t-8 -13.5h-675q-4 0 -7.5 14.5t-3.5 30.5z" />
<glyph unicode="`" horiz-adv-x="436" d="M80 1489q-2 8 18 8q31 0 74 -11t45 -20l98 -491q2 -4 -8 -7t-12 3z" />
<glyph unicode="a" horiz-adv-x="860" d="M109 127q0 66 52 110t167 87l219 79v136q0 123 -32 178t-93 55q-68 0 -102.5 -47t-45.5 -107q-12 -90 -84 -90q-37 0 -55 18.5t-18 45.5q0 51 64.5 102t155.5 84t161 33q84 0 130 -54.5t46 -156.5v-379q0 -70 19.5 -102.5t60.5 -32.5q37 0 94 25h4q8 0 10 -9.5t-6 -13.5 l-211 -100q-8 -4 -18 -4q-27 0 -48.5 35.5t-29.5 97.5l-103 -68q-49 -35 -89 -49t-85 -14q-78 0 -120.5 40t-42.5 101zM262 180q0 -49 32 -80.5t81 -31.5q41 0 92 30l80 49v13v215l-172 -70q-55 -20 -84 -50t-29 -75z" />
<glyph unicode="b" horiz-adv-x="1046" d="M16.5 1342.5q-4.5 11.5 3.5 13.5l265 127l10 2q6 0 13 -6t7 -13v-819q74 76 152 123t174 47q90 0 166 -43t121 -128t45 -208q0 -147 -63.5 -252.5t-167 -159t-218.5 -53.5q-158 0 -280 90l-162 -73h-4q-8 0 -10 7t4 13q61 41 87.5 83t26.5 118v1010q0 74 -13 105.5 t-50 31.5t-92 -27h-2q-8 0 -12.5 11.5zM315 281q0 -92 43 -152.5t105.5 -88.5t120.5 -28q114 0 177.5 92.5t63.5 262.5q0 182 -70.5 278t-185.5 96q-123 0 -254 -131v-329z" />
<glyph unicode="c" horiz-adv-x="845" d="M72 379q0 131 67.5 228.5t172 149.5t214.5 52q92 0 167 -37t75 -92q0 -31 -21.5 -51.5t-56.5 -20.5q-66 0 -98 74q-23 45 -52.5 65.5t-84.5 20.5q-111 0 -172.5 -89t-61.5 -237q0 -172 84 -281.5t256 -109.5q117 0 205 66h4q6 0 11 -6.5t-1 -10.5q-72 -66 -144.5 -95.5 t-162.5 -29.5q-133 0 -223 58.5t-134 150.5t-44 195z" />
<glyph unicode="d" horiz-adv-x="1048" d="M72 367q0 147 71.5 248.5t180 151.5t217.5 50q104 0 188 -47v451q0 74 -14.5 105.5t-50.5 31.5q-27 0 -91 -27h-4q-8 0 -11 9.5t3 13.5l266 129q4 2 11 2q6 0 13 -6t7 -13v-1239q0 -74 16.5 -105.5t55.5 -31.5q51 0 102 29h4q6 0 10.5 -10.5t-2.5 -12.5l-235 -112 q-12 -4 -14 -4q-27 0 -45.5 43t-20.5 120q-74 -76 -155.5 -123t-180.5 -47q-86 0 -159.5 48.5t-117.5 138.5t-44 207zM219 428q0 -170 73 -273.5t187 -103.5q70 0 130.5 34t119.5 95v459q-45 66 -102.5 100.5t-137.5 34.5q-125 0 -197.5 -89t-72.5 -257z" />
<glyph unicode="e" horiz-adv-x="837" d="M72 371q0 121 58 221t158.5 158.5t221.5 58.5q119 0 181.5 -60.5t62.5 -173.5q0 -55 -25 -55l-506 -2q-4 -45 -4 -69q0 -178 84 -287t238 -109q61 0 103 15.5t99 50.5h2q6 0 11.5 -7.5t1.5 -13.5q-137 -123 -303 -123q-121 0 -207 54.5t-131 145.5t-45 196zM227 547 l373 8q0 104 -42 158.5t-118 54.5q-86 0 -141 -58.5t-72 -162.5z" />
<glyph unicode="f" horiz-adv-x="624" d="M49 749.5q0 14.5 6 14.5q82 0 112 19.5t32 72.5q10 334 121.5 482.5t332.5 148.5q107 0 173.5 -32t66.5 -79q0 -33 -23.5 -52t-54.5 -19q-29 0 -47 13t-41 46q-29 43 -62.5 64.5t-84.5 21.5q-115 0 -181.5 -136t-66.5 -415v-131q127 6 256 20q6 0 10 -14t4 -33 q0 -18 -6 -35.5t-14 -15.5q-106 27 -250 31v-555q0 -63 13 -92t54 -39t131 -10q6 0 6.5 -12.5t-6.5 -12.5l-135 2q-43 2 -131 2l-117 -2q-31 -2 -84 -2q-6 0 -6 12.5t6 12.5q59 0 88 10t39.5 39.5t10.5 91.5v461q0 51 -10.5 72.5t-39 28.5t-96.5 7q-6 0 -6 14.5z" />
<glyph unicode="g" horiz-adv-x="913" d="M63 -348q0 150 209 295q-74 12 -114.5 45t-40.5 96q0 61 35.5 111.5t111.5 107.5q-72 35 -112.5 97.5t-40.5 136.5q0 117 95 190.5t238 73.5q129 0 213 -64q57 33 108.5 50.5t111.5 17.5q6 0 9 -15.5t3 -33.5q0 -25 -6 -51.5t-15 -22.5q-66 31 -139 31q-29 0 -43 -2 q68 -74 68 -172q0 -74 -43 -135.5t-118 -98.5t-169 -37q-63 0 -129 21q-37 -31 -53.5 -59.5t-16.5 -63.5q0 -47 29 -71.5t90.5 -34t171.5 -9.5q111 -2 180.5 -11t126 -55t56.5 -145q0 -113 -72 -209t-189.5 -153t-248.5 -57q-139 0 -222.5 64.5t-83.5 162.5zM193 -272 q0 -113 71.5 -176.5t196.5 -63.5q135 0 219 72.5t84 195.5q0 82 -39 121t-103.5 49.5t-181.5 12.5q-82 0 -118 4q-61 -41 -95 -91.5t-34 -123.5zM250 592q0 -90 31.5 -155.5t81 -99.5t104.5 -34q66 0 105.5 48t39.5 147q0 125 -64.5 199.5t-156.5 74.5q-67 0 -104 -44 t-37 -136z" />
<glyph unicode="h" horiz-adv-x="1024" d="M7 1341.5q-5 10.5 3 14.5l269 129h6q8 0 14 -6t6 -13v-827q150 174 316 174q113 0 174 -65.5t61 -186.5v-395q0 -86 24.5 -113.5t102.5 -27.5q6 0 6 -12.5t-6 -12.5q-51 0 -80 2l-110 2l-115 -2q-29 -2 -76 -2q-6 0 -6 12.5t6 12.5q76 0 100.5 27.5t24.5 113.5v319 q0 121 -45 178.5t-139 57.5q-61 0 -124 -32t-114 -87v-436q0 -86 24.5 -113.5t102.5 -27.5q6 0 6 -12.5t-6 -12.5q-51 0 -80 2l-110 2l-115 -2q-29 -2 -76 -2q-6 0 -6 12.5t6 12.5q76 0 100.5 27.5t24.5 113.5v1055q0 74 -14.5 106.5t-48.5 32.5q-29 0 -90 -29h-3 q-8 0 -13 10.5z" />
<glyph unicode="i" horiz-adv-x="555" d="M59.5 665.5q-4.5 10.5 3.5 14.5l273 127l8 2q6 0 13.5 -6t7.5 -12q0 -14 -2.5 -82t-2.5 -160v-383q0 -59 9.5 -89t36 -41t79.5 -11q6 0 6.5 -12.5t-6.5 -12.5q-51 0 -79 2l-111 2l-115 -2q-29 -2 -76 -2q-6 0 -6 12.5t6 12.5q76 0 100.5 27.5t24.5 113.5v381 q0 72 -14 104.5t-51 32.5q-35 0 -90 -29h-2q-8 0 -12.5 10.5zM184 1137q0 41 26 65.5t71 24.5q43 0 67.5 -24.5t24.5 -65.5q0 -45 -24.5 -70t-67.5 -25q-45 0 -71 25t-26 70z" />
<glyph unicode="j" horiz-adv-x="528" d="M33 -555q100 43 141 137t41 273v692q0 72 -14.5 104.5t-48.5 32.5q-35 0 -91 -29h-2q-8 0 -13 10.5t3 14.5l275 127l6 2q8 0 13 -6t5 -12q0 -15 -2 -82.5t-2 -159.5v-647q0 -139 -27.5 -228.5t-92 -149t-181.5 -102.5q-4 -2 -9 9.5t-1 13.5zM168 1137q0 41 25.5 65.5 t70.5 24.5q43 0 67.5 -24.5t24.5 -65.5q0 -45 -24.5 -70t-67.5 -25q-45 0 -70.5 25t-25.5 70z" />
<glyph unicode="k" horiz-adv-x="1005" d="M7 1341.5q-5 10.5 3 14.5l264 127l11 2q6 0 13 -6t7 -13v-1060l260 217q63 51 64 90q0 25 -28 39t-83 14q-6 0 -6 12.5t6 12.5q57 0 86 -3l152 -2l139 2q29 2 76 3q4 0 4 -12.5t-4 -12.5q-80 0 -175.5 -38t-187.5 -114l-112 -90l266 -358q102 -141 233 -141q4 0 4 -12.5 t-4 -12.5q-51 0 -80 2l-110 2l-150 -2q-33 -2 -90 -2q-4 0 -4 12.5t4 12.5q98 0 99 41q0 18 -19 43l-250 333l-90 -71v-205q0 -86 24.5 -113.5t102.5 -27.5q6 0 6 -12.5t-6 -12.5q-51 0 -80 2l-110 2l-115 -2q-29 -2 -76 -2q-6 0 -6 12.5t6 12.5q76 0 100.5 27.5t24.5 113.5 v1055q0 74 -14.5 106.5t-48.5 32.5q-29 0 -90 -29h-3q-8 0 -13 10.5z" />
<glyph unicode="l" horiz-adv-x="532" d="M36 1342.5q-5 11.5 3 13.5l270 127l8 2q6 0 14.5 -6t8.5 -13v-1300q0 -86 23.5 -113.5t101.5 -27.5q6 0 6 -12.5t-6 -12.5q-49 0 -80 2l-113 2l-114 -2q-29 -2 -78 -2q-6 0 -6 12.5t6 12.5q76 0 100.5 27.5t24.5 113.5v1055q0 74 -13.5 106.5t-48.5 32.5q-31 0 -92 -29 h-2q-8 0 -13 11.5z" />
<glyph unicode="m" d="M20.5 675q-4.5 9 4.5 13l245 119l13 2q20 0 39.5 -46t21.5 -122q141 172 301 172q92 0 149.5 -46t71.5 -134q76 92 152 136t158 44q109 0 167 -63.5t58 -188.5v-395q0 -59 9 -89t36 -41t80 -11q8 0 8 -12.5t-8 -12.5q-47 0 -76 2l-115 2l-110 -2q-29 -2 -80 -2 q-4 0 -4 12.5t4 12.5q78 0 102.5 27.5t24.5 113.5v319q0 121 -42 178.5t-130 57.5q-59 0 -119.5 -33t-110.5 -88v-31v-403q0 -86 25 -113.5t102 -27.5q4 0 4 -12.5t-4 -12.5q-51 0 -79 2l-113 2l-111 -2q-29 -2 -78 -2q-6 0 -6 12.5t6 12.5q76 0 100.5 27.5t24.5 113.5v319 q0 121 -42 178.5t-130 57.5q-59 0 -117.5 -31t-107.5 -86v-438q0 -59 9 -89t36 -41t80 -11q6 0 6 -12.5t-6 -12.5q-51 0 -80 2l-110 2l-111 -2q-29 -2 -78 -2q-6 0 -6 12.5t6 12.5q53 0 79 11t35 40.5t9 89.5v401q0 68 -16.5 98.5t-53.5 30.5q-31 0 -108 -30h-2 q-8 0 -12.5 9z" />
<glyph unicode="n" horiz-adv-x="1062" d="M20.5 675q-4.5 9 4.5 13l245 119l13 2q20 0 39.5 -46t21.5 -122q150 176 313 176q113 0 175.5 -65.5t62.5 -186.5v-399q0 -59 9 -89t36 -41t80 -11q6 0 6 -12.5t-6 -12.5q-51 0 -80 2l-111 2l-110 -2q-29 -2 -78 -2q-6 0 -6 12.5t6 12.5q53 0 78.5 11t35 40.5t9.5 89.5 v326q0 119 -44 175t-140 56q-59 0 -122 -30.5t-114 -86.5v-440q0 -59 9 -89t36 -41t80 -11q6 0 6 -12.5t-6 -12.5q-51 0 -80 2l-110 2l-111 -2q-29 -2 -78 -2q-6 0 -6 12.5t6 12.5q53 0 79 11t35 40.5t9 89.5v401q0 68 -16.5 98.5t-53.5 30.5q-31 0 -108 -30h-2 q-8 0 -12.5 9z" />
<glyph unicode="o" horiz-adv-x="985" d="M72 406q0 133 65.5 226t167 139t207.5 46q121 0 212 -59.5t140 -156.5t49 -206q0 -127 -59 -222t-159.5 -147.5t-219.5 -52.5q-121 0 -212 58.5t-141 158t-50 216.5zM225 471q0 -127 40 -232.5t109.5 -166t160.5 -60.5q106 0 164.5 80t58.5 244q0 129 -41 229.5 t-113 155.5t-160 55q-104 0 -161.5 -77.5t-57.5 -227.5z" />
<glyph unicode="p" horiz-adv-x="1046" d="M-5 678q-5 10 3 12l240 115q8 4 14 4q27 0 45 -42t20 -120q86 88 169 129t169 41q84 0 157 -45t116 -131t43 -201q0 -156 -68.5 -261t-171 -155.5t-203.5 -50.5q-63 0 -112 10.5t-99 36.5v-417q0 -61 15.5 -90t57.5 -40.5t130 -11.5q4 0 4 -12t-4 -12q-74 0 -114 2 l-152 2l-113 -2q-29 -2 -78 -2q-6 0 -6 12t6 12q55 0 81 11.5t35 40t9 90.5v960q0 72 -15 103.5t-56 31.5q-39 0 -107 -30h-2q-8 0 -13 10zM317 145q53 -63 116 -95t153 -32q106 0 172.5 94.5t66.5 264.5t-74.5 263t-191.5 93q-70 0 -127 -31.5t-115 -91.5v-465z" />
<glyph unicode="q" horiz-adv-x="1003" d="M72 352q0 158 66.5 262.5t169 153.5t212.5 49q143 0 275 -74l143 52l4 2q6 0 8 -9.5t-4 -11.5q-51 -29 -75.5 -68.5t-24.5 -103.5v-1001q0 -59 10 -89t37 -41.5t82 -11.5q4 0 4 -12t-4 -12q-49 0 -80 2l-113 2l-127 -2q-35 -2 -98 -2q-4 0 -4 12t4 12q72 0 104.5 11.5 t45 40t12.5 90.5v538q-74 -76 -150.5 -122t-173.5 -46q-86 0 -160.5 44t-118.5 130t-44 205zM221 420q0 -178 67.5 -274.5t180.5 -96.5q121 0 250 129v371q0 106 -74 166.5t-184 60.5q-240 0 -240 -356z" />
<glyph unicode="r" horiz-adv-x="751" d="M20.5 675q-4.5 9 4.5 13l245 119l13 2q20 0 39.5 -46t21.5 -120q84 96 133 131t94 35t87 -26.5t42 -63.5q0 -29 -19 -48.5t-52 -19.5q-20 0 -34.5 8.5t-33.5 24.5q-20 16 -35.5 24.5t-38.5 8.5q-27 0 -54 -20.5t-89 -90.5v-440q0 -59 15.5 -89t56.5 -41t125 -11 q6 0 6 -12.5t-6 -12.5q-68 0 -109 2l-153 2l-111 -2q-29 -2 -78 -2q-6 0 -6 12.5t6 12.5q53 0 79 11t35 40.5t9 89.5v401q0 68 -16.5 98.5t-53.5 30.5q-31 0 -108 -30h-2q-8 0 -12.5 9z" />
<glyph unicode="s" horiz-adv-x="692" d="M96 229q0 6 11.5 7.5t13.5 -5.5q37 -102 102.5 -158.5t147.5 -56.5q59 0 92 29t33 86q0 82 -46.5 126t-138.5 91q-70 35 -108.5 61.5t-66 69.5t-27.5 107q0 113 82.5 171t199.5 58q82 0 154 -31q18 -8 18 -22q0 -43 -2 -68l-2 -88q0 -4 -12 -4t-12 4q0 63 -69 115.5 t-147 52.5q-49 0 -77.5 -24.5t-28.5 -77.5q0 -70 45 -113t135 -90q72 -37 113 -63.5t69.5 -70.5t28.5 -106q0 -104 -77.5 -178t-215.5 -74q-53 0 -101 14.5t-97 47.5q-12 8 -13 24z" />
<glyph unicode="t" horiz-adv-x="692" d="M72 751.5q0 14.5 6 14.5q86 2 140 43t67 115q2 6 16 6t14 -6v-156q98 2 281 20q6 0 10 -14t4 -33q0 -18 -6 -35.5t-14 -15.5q-115 27 -275 31v-504q0 -164 160 -164q86 0 164 58l4 2q6 0 10 -9.5t-2 -13.5q-76 -61 -137 -88t-131 -27q-86 0 -142.5 40t-56.5 132v478 q0 49 -8 72.5t-29.5 31.5t-68.5 8q-6 0 -6 14.5z" />
<glyph unicode="u" horiz-adv-x="1013" d="M13.5 686q-3.5 10 2.5 12l236 109l8 2q6 0 14.5 -6t8.5 -12v-482q0 -235 171 -235h1q61 0 124.5 30.5t116.5 85.5v357q0 78 -14 112.5t-47 34.5q-25 0 -68 -18h-4q-6 0 -8 10t4 12l236 109l8 2q6 0 13 -6t7 -12v-568q0 -70 16.5 -100.5t53.5 -30.5q31 0 104 27l4 2 q8 0 11.5 -10.5t-2.5 -14.5l-248 -116l-8 -3q-20 0 -39 49.5t-19 127.5q-154 -172 -319 -172q-104 0 -163.5 65.5t-59.5 185.5v314q0 78 -13.5 112.5t-46.5 34.5q-25 0 -67 -18h-4q-6 0 -9.5 10z" />
<glyph unicode="v" horiz-adv-x="890" d="M-10 778.5q0 12.5 6 12.5q39 0 61 -3l88 -2l140 2q31 2 84 3q6 0 6 -12.5t-6 -12.5q-121 0 -121 -47q0 -16 8 -33l244 -512l184 444q14 39 14 62q0 86 -157 86q-4 0 -4 12.5t4 12.5q55 0 84 -3l123 -2l77 2q20 2 66 3q4 0 4 -12.5t-4 -12.5q-53 0 -91 -36t-73 -120 l-256 -608q-4 -10 -22 -10q-16 0 -23 10l-291 619q-41 90 -69.5 117.5t-69.5 27.5q-6 0 -6 12.5z" />
<glyph unicode="w" horiz-adv-x="1378" d="M-10 778.5q0 12.5 6 12.5q39 0 61 -3l88 -2l129 2q31 2 86 3q6 0 6.5 -12.5t-6.5 -12.5q-116 0 -116 -46q0 -13 10 -34l248 -510l153 375l-32 70q-43 90 -69 117.5t-65 27.5q-4 0 -4 12.5t4 12.5q39 0 62 -3l82 -2l133 2q31 2 82 3q6 0 6 -12.5t-6 -12.5q-115 0 -115 -49 q0 -10 10 -31l244 -512l182 444q14 35 15 62q0 45 -38 65.5t-118 20.5q-4 0 -4 12.5t4 12.5q55 0 84 -3l123 -2l76 2q20 2 65 3q6 0 6 -12.5t-6 -12.5q-51 0 -88 -35t-74 -121l-253 -608q-2 -8 -23 -8q-20 0 -23 8l-235 496l-209 -496q0 -8 -20 -8q-18 0 -25 8l-291 619 q-41 90 -69.5 117.5t-69.5 27.5q-6 0 -6 12.5z" />
<glyph unicode="x" horiz-adv-x="899" d="M18.5 12.5q-0.5 12.5 4.5 12.5q57 0 120.5 40.5t116.5 116.5l133 183l-170 256q-49 74 -100 109.5t-92 35.5q-4 0 -4 12.5t4 12.5q43 0 63 -3l64 -2l135 2q31 2 82 3q4 0 4 -12.5t-4 -12.5q-33 0 -48.5 -5t-15.5 -20q0 -18 25 -55l137 -209l96 144q45 63 45 96 q0 49 -114 49q-4 0 -4 12.5t4 12.5q55 0 84 -3l123 -2l75 2q20 2 68 3q4 0 4 -12.5t-4 -12.5q-57 0 -118.5 -40t-119.5 -118l-118 -162l184 -276q51 -76 104.5 -110.5t96.5 -34.5q4 0 4 -12.5t-4 -12.5l-70 2q-23 2 -66 2l-133 -2q-31 -2 -84 -2q-6 0 -6 12.5t6 12.5 q35 0 49.5 5t14.5 19q0 18 -25 55l-151 230l-113 -164q-43 -63 -43 -94q0 -51 113 -51q6 0 6 -12.5t-6 -12.5q-55 0 -82 2l-123 2l-76 -2q-20 -2 -67 -2q-4 0 -4.5 12.5z" />
<glyph unicode="y" horiz-adv-x="888" d="M-74 -492q0 33 21.5 50.5t50.5 17.5q27 0 44 -7t36 -20q4 -2 23.5 -12t48.5 -10q49 0 92 42t92 139t117 274l-316 639q-47 90 -71.5 117.5t-63.5 27.5q-4 0 -4 12.5t4 12.5q47 0 72 -3l71 -2l133 2q31 2 82 3q4 0 4 -12.5t-4 -12.5q-57 0 -86.5 -10.5t-29.5 -34.5 q0 -10 10 -35l264 -545l158 453q16 49 16 80q0 49 -36 70.5t-115 21.5q-4 0 -4 12.5t4 12.5q55 0 84 -3l122 -2l74 2q23 2 68 3q6 0 6 -12.5t-6 -12.5q-55 0 -93 -39t-73 -129l-246 -655q-76 -199 -142.5 -310.5t-137 -159.5t-160.5 -48q-49 0 -79 21.5t-30 61.5z" />
<glyph unicode="z" horiz-adv-x="829" d="M82 25l485 725q8 14 -10 14q-150 0 -238 -15.5t-139 -56.5t-74 -117q0 -4 -8 -4q-6 0 -12 3.5t-4 5.5l72 274q0 4 10 4q6 0 11 -3t3 -5q-2 -6 -2 -19q0 -25 22.5 -32.5t77.5 -7.5h441q8 0 14 -8.5t2 -16.5l-481 -721q-6 -14 10 -14q188 0 275.5 14t129.5 57t70 138 q2 4 12.5 4t10.5 -4l-4 -217q0 -8 -5.5 -15.5t-13.5 -7.5h-641q-8 0 -13 8t-1 17z" />
<glyph unicode="{" horiz-adv-x="591" d="M59 623.5q0 13.5 7 13.5q94 12 124.5 133t30.5 313q0 176 23.5 259t83 113t184.5 30q8 0 8 -12.5t-8 -12.5q-70 0 -107.5 -56t-42.5 -161q-4 -252 -16 -353.5t-56 -159.5t-153 -105q109 -49 153 -109.5t56 -162t16 -351.5q4 -104 42 -160.5t108 -56.5q8 0 8 -12.5 t-8 -12.5q-127 0 -186.5 30t-82 113t-22.5 261q0 197 -30.5 315.5t-124.5 130.5q-7 0 -7 13.5z" />
<glyph unicode="|" horiz-adv-x="344" d="M133 -315v1812q0 14 43 14q41 0 41 -14v-1812q0 -8 -12 -12.5t-29 -4.5q-18 0 -30.5 4t-12.5 13z" />
<glyph unicode="}" horiz-adv-x="579" d="M59.5 -227.5q-0.5 12.5 8.5 12.5q70 0 107.5 56.5t41.5 160.5q4 250 16.5 351.5t56.5 161.5t152 110q-109 47 -152.5 105t-56 159.5t-16.5 353.5q-4 104 -42 160.5t-107 56.5q-8 0 -8.5 12.5t8.5 12.5q125 0 184 -30t82.5 -112.5t23.5 -259.5q0 -193 31 -313.5 t125 -132.5q6 0 6 -13.5t-6 -13.5q-94 -12 -125 -131t-31 -315q0 -178 -22.5 -261t-81.5 -113t-186 -30q-8 0 -8.5 12.5z" />
<glyph unicode="~" horiz-adv-x="907" d="M98 317q121 166 236 166q39 0 83 -15t52 -17q106 -41 174 -41q57 0 88 20.5t66 58.5h2q6 0 11 -5t1 -9q-74 -98 -120 -132t-101 -34q-39 0 -73 9.5t-83 27.5q-55 18 -90 27.5t-78 9.5q-49 0 -75.5 -14.5t-48 -36l-29.5 -29.5h-2q-4 0 -9.5 5t-3.5 9z" />
<glyph unicode="&#xa1;" horiz-adv-x="512" d="M154 -543q33 160 49 336t35 473l4 72q0 6 18 6t19 -6q14 -299 29.5 -502t49.5 -379q2 -8 -30.5 -14t-71.5 -6t-71.5 6t-30.5 14zM172 651q0 45 24.5 71t69.5 26q43 0 69.5 -26t26.5 -71q0 -41 -26.5 -65.5t-69.5 -24.5q-45 0 -69.5 23.5t-24.5 66.5z" />
<glyph unicode="&#xa2;" horiz-adv-x="1099" d="M72 483q0 129 63.5 237.5t176 176.5t253.5 82v170q0 8 7.5 12t17.5 4q8 0 15 -4t7 -12v-166h25q76 0 165 -16.5t146 -42.5q14 -6 18.5 -13.5t4.5 -21.5l18 -211q0 -6 -11 -8t-13 6q-84 264 -353 274v-942q12 -2 37 -2q248 0 336 281q2 8 12.5 6t10.5 -8l-25 -217 q-2 -16 -6 -22.5t-23 -14.5q-158 -55 -327 -56h-15v-184q0 -14 -22 -14q-25 0 -25 14v186q-172 12 -283.5 91t-160.5 191t-49 224zM236 514q0 -178 85 -322.5t244 -177.5v934q-96 -8 -172 -65.5t-116.5 -153.5t-40.5 -215z" />
<glyph unicode="&#xa3;" horiz-adv-x="884" d="M53 11.5q0 11.5 4 13.5q102 25 141.5 70.5t39.5 121.5q0 113 -39 229h-95q-6 0 -10 7.5t-4 17.5q0 8 4 15.5t10 7.5h80q-16 53 -25 94t-9 90q0 154 101 229.5t253 75.5q94 0 184 -33q31 -8 33 -39l14 -206q0 -8 -10 -9q-12 0 -14 9q-27 106 -84.5 176.5t-151.5 70.5 q-98 0 -143 -60.5t-45 -146.5q0 -61 12 -112t39 -139h223q14 0 14 -23q0 -25 -14 -25h-211q20 -76 21 -143q0 -78 -27 -127t-76 -88h246q90 0 134 12.5t66.5 47t39.5 108.5q0 4 12 3t12 -5q-18 -106 -18 -223q0 -16 -7.5 -23.5t-23.5 -7.5h-672q-4 0 -4 11.5z" />
<glyph unicode="&#xa4;" horiz-adv-x="847" d="M100 700l62 56l104 -113q78 43 166 43q86 0 158 -45l102 109l49 -50l-100 -102q74 -78 74 -186q0 -104 -72 -181l100 -100l-61 -59l-98 112q-86 -51 -183 -51q-82 0 -149 41l-90 -102l-51 51l90 94q-37 39 -56.5 91t-19.5 106q0 111 78 184zM242 457q0 -111 51 -198 t147 -87q70 0 111 51t41 146q0 113 -56.5 195.5t-150.5 82.5q-66 0 -104.5 -48t-38.5 -142z" />
<glyph unicode="&#xa5;" horiz-adv-x="991" d="M-8 946q0 12 6 12l70 -2q49 -4 67 -4q61 0 164 4l104 2q6 0 6.5 -12t-6.5 -12q-90 0 -90 -45q0 -18 19 -49l217 -332l139 244q33 57 33 104q0 37 -22.5 57.5t-65.5 20.5q-6 0 -6 12t6 12l86 -2q70 -4 131 -4q29 0 65 4l60 2q6 0 6 -12t-6 -12q-66 0 -127.5 -47 t-114.5 -137l-166 -281v-33h207q14 0 14 -22q0 -23 -14 -23h-559q-14 0 -14 23t14 22h211v2l-227 350q-53 80 -97.5 113t-103.5 33q-6 0 -6 12zM201 287q0 23 14 22h559q14 1 14 -22t-14 -23h-207v-98q0 -63 12.5 -92t47.5 -39t112 -10q4 0 4 -12.5t-4 -12.5q-63 0 -98 2 l-145 2l-138 -2q-39 -2 -106 -2q-4 0 -4 12.5t4 12.5q76 0 111.5 10t49 39.5t13.5 91.5v98h-211q-14 0 -14 23z" />
<glyph unicode="&#xa6;" horiz-adv-x="344" d="M133 -315v757q0 8 12.5 12.5t30.5 4.5q16 0 28.5 -4t12.5 -13v-757q0 -8 -12 -12.5t-29 -4.5q-18 0 -30.5 4t-12.5 13zM133 737v760q0 14 43 14q41 0 41 -14v-760q0 -6 -12 -10t-29 -4q-16 0 -29.5 4t-13.5 10z" />
<glyph unicode="&#xa7;" horiz-adv-x="919" d="M152 457q0 76 29.5 135t111.5 133q-78 78 -78 178q0 131 93 199.5t222 68.5q106 0 179 -38q23 -10 22 -33l17 -209q0 -4 -12.5 -4t-12.5 4q-10 45 -48 100.5t-95.5 94t-122.5 38.5q-57 0 -93 -36.5t-36 -110.5q0 -66 28.5 -115t71.5 -84t119 -86q84 -53 136 -97 t88 -109.5t36 -155.5q0 -76 -28.5 -135.5t-110.5 -131.5q84 -78 84 -180q0 -131 -94.5 -199.5t-223.5 -68.5q-104 0 -178 37q-23 14 -25 35l-14 207q0 6 11.5 6t13.5 -6q10 -43 48 -98.5t95 -94.5t123 -39q57 0 94 36t37 112q0 66 -29.5 114.5t-72.5 83.5t-121 86 q-86 53 -138.5 97.5t-89 110t-36.5 155.5zM260 532q0 -90 37 -156.5t90 -109.5t141 -100q18 -14 56.5 -39t62.5 -45q51 63 51 170q0 90 -35.5 156.5t-88 109.5t-138.5 100t-121 89q-55 -68 -55 -175z" />
<glyph unicode="&#xa8;" horiz-adv-x="659" d="M59 1063q0 41 25 64.5t68 23.5q41 0 64.5 -23.5t23.5 -64.5q0 -43 -23.5 -66.5t-64.5 -23.5q-43 0 -68 23.5t-25 66.5zM418 1063q0 41 24.5 63.5t67.5 22.5t65.5 -22.5t22.5 -63.5q0 -43 -22.5 -66.5t-65.5 -23.5t-67.5 23.5t-24.5 66.5z" />
<glyph unicode="&#xa9;" horiz-adv-x="1474" d="M147 389q0 182 94.5 326.5t249 225.5t328.5 81q154 0 271.5 -63.5t182 -172t64.5 -235.5q0 -125 -66.5 -233.5t-183 -173t-260.5 -64.5q-125 0 -207.5 46t-121.5 118.5t-39 154.5q0 106 51 184.5t133 120t170 41.5q76 0 136.5 -29.5t62.5 -76.5q0 -27 -17.5 -45.5 t-46.5 -18.5q-45 0 -76 58q-27 37 -51 56.5t-67 19.5q-84 0 -120 -64.5t-36 -187.5q0 -141 72.5 -231.5t230.5 -90.5q92 0 171 40t127 121t48 196q0 131 -64.5 242.5t-178 176t-250.5 64.5q-158 0 -271.5 -72t-172 -194.5t-58.5 -272.5q0 -184 83 -316t214 -198.5t270 -66.5 q117 0 206 19.5t194 76.5q4 2 9 -5t1 -9q-111 -86 -223.5 -117t-245.5 -31q-150 0 -291 68.5t-231.5 205t-90.5 326.5z" />
<glyph unicode="&#xaa;" horiz-adv-x="573" d="M63 616q0 10 3.5 19.5t5.5 9.5h460q5 0 8 -9t3 -20q0 -12 -3 -21t-8 -9h-458q-4 0 -7.5 10t-3.5 20zM68 827q0 33 24.5 54.5t87.5 44.5l182 65v111q0 94 -24.5 122.5t-67.5 28.5q-37 0 -61.5 -29.5t-32.5 -74.5q-4 -25 -15 -40t-38 -15q-25 0 -40 15t-15 34q0 33 45 66.5 t106.5 57t106.5 23.5q53 0 88 -36.5t35 -110.5v-240q0 -47 9 -67.5t31 -20.5q18 0 66 19h2q8 0 11 -7.5t-1 -11.5l-139 -65q-20 -10 -39.5 12t-23.5 69l-82 -43q-45 -25 -70 -32.5t-51 -7.5q-43 0 -68.5 22.5t-25.5 56.5zM172 858q0 -25 16.5 -41t40.5 -16q23 0 52 12l81 43 v2v111l-135 -51q-31 -12 -43 -24.5t-12 -35.5z" />
<glyph unicode="&#xab;" horiz-adv-x="940" d="M111 412q0 14 8 22l366 305q0 2 4 2t8.5 -5t2.5 -7l-240 -317l240 -318q2 -4 -5.5 -11t-9.5 -1l-366 305q-8 8 -8 25zM428 412q0 10 8 22l367 305q4 6 11 0t3 -10l-237 -317l237 -318v-2q0 -6 -5 -10t-9 0l-367 305q-8 12 -8 25z" />
<glyph unicode="&#xac;" horiz-adv-x="808" d="M59 510q0 14 2 26.5t7 12.5h677v-391q0 -4 -14 -7.5t-31 -3.5q-14 0 -26 2.5t-12 6.5v311h-592q-4 0 -7.5 13.5t-3.5 29.5z" />
<glyph unicode="&#xad;" horiz-adv-x="661" d="M55 385q0 39 6 39l535 96q4 2 7 -12t3 -31q0 -16 -3 -30.5t-7 -16.5l-530 -96q-5 -2 -8 15.5t-3 35.5z" />
<glyph unicode="&#xae;" horiz-adv-x="1531" d="M147 872q0 176 92.5 316.5t244 218.5t325.5 78t306 -75t205 -204t73 -282q0 -176 -86 -323.5t-233.5 -232.5t-321.5 -85q-152 0 -291 70.5t-226.5 204.5t-87.5 314zM244 930q0 -180 82 -314.5t213 -205t272 -70.5q152 0 262.5 64.5t170 183.5t59.5 274q0 166 -73 297 t-201 205t-288 74t-272.5 -70t-168.5 -184.5t-56 -253.5zM483 569.5q0 12.5 2 12.5q45 0 63.5 6t26 24.5t7.5 59.5v442q0 57 -17.5 73.5t-79.5 16.5q-2 0 -2 12.5t2 12.5l146 -2q25 0 90 4l78 2q94 0 142 -33t48 -102q0 -61 -28.5 -106.5t-83.5 -71.5q68 -135 106.5 -200 t78.5 -100.5t93 -44.5q4 -2 4 -10t-4 -8h-170q-35 0 -201 332q-43 -8 -106 -8v-209q0 -41 7 -59.5t27.5 -24.5t67.5 -6q4 0 4 -12.5t-4 -12.5q-39 0 -59 2l-90 2l-86 -2q-23 -2 -60 -2q-2 0 -2 12.5zM678 918q24 -5 67 -5q72 0 107 32t35 106q0 156 -121 155q-39 0 -55.5 -5 t-24.5 -25.5t-8 -67.5v-190z" />
<glyph unicode="&#xaf;" horiz-adv-x="706" d="M82 1016q0 12 4 21.5t10 9.5h514q14 0 15 -31q0 -31 -15 -31h-514q-6 0 -10 9.5t-4 21.5z" />
<glyph unicode="&#xb0;" horiz-adv-x="679" d="M59 1030q0 109 79 184.5t204 75.5t202 -75.5t77 -188.5t-77 -187.5t-202 -74.5t-204 75.5t-79 190.5zM186 1036q0 -117 38 -182.5t132 -65.5q86 0 113 54.5t27 169.5q0 256 -166 256q-84 0 -114 -59.5t-30 -172.5z" />
<glyph unicode="&#xb1;" horiz-adv-x="815" d="M59 43q0 12 2 23.5t7 11.5h677q5 0 8 -11.5t3 -25.5t-3 -26.5t-8 -12.5h-675q-4 0 -7.5 13.5t-3.5 27.5zM59 520q0 14 2 26.5t7 12.5h297v297q0 8 43 8t43 -8v-297h294q4 0 7.5 -13.5t3.5 -27.5q0 -16 -3 -29.5t-8 -13.5h-294v-295q0 -4 -14.5 -7t-30.5 -3q-14 0 -27.5 3 t-13.5 5v297h-295q-4 0 -7.5 14.5t-3.5 30.5z" />
<glyph unicode="&#xb2;" horiz-adv-x="514" d="M57 1337q45 156 197 156q82 0 125 -41t43 -106q0 -61 -41 -120t-123 -145q-55 -57 -85 -93t-42 -70q-2 -8 4 -9q137 0 191.5 6.5t75 26t32.5 72.5q0 4 7.5 4t7.5 -4l-3 -180q0 -8 -8 -9h-372q-10 0 -7 11q15 53 43.5 100t83.5 123q66 92 96.5 148.5t30.5 119.5 q0 57 -26.5 89t-71.5 32q-49 0 -85 -33t-48 -84q0 -4 -8 -4q-6 0 -12.5 3t-4.5 7z" />
<glyph unicode="&#xb3;" horiz-adv-x="514" d="M45 952q-2 8 10.5 11.5t14.5 -5.5q16 -43 53 -74.5t94 -31.5q55 0 89 34t34 107q0 76 -42 120t-112 44q-6 0 -6 11.5t6 11.5q59 0 93 45t34 102q0 53 -28.5 85t-73.5 32t-82 -33t-47 -80q0 -4 -8 -4q-6 0 -12.5 3t-4.5 7q20 70 68.5 113t128.5 43t124 -42t44 -108 q0 -55 -37 -101t-94 -68q71 -15 114.5 -54t43.5 -106q0 -82 -56.5 -142.5t-156.5 -60.5q-145 0 -191 141z" />
<glyph unicode="&#xb4;" horiz-adv-x="434" d="M119 975l100 491q2 8 46 19.5t73 11.5q20 0 18 -8l-215 -518q0 -4 -8 -4q-6 0 -11 3t-3 5z" />
<glyph unicode="&#xb6;" horiz-adv-x="1314" d="M111 791q0 244 147.5 369.5t409.5 125.5q63 0 131 -6q25 0 77 -3t97 -3q41 0 119 4l106 2q4 0 4 -12.5t-4 -12.5q-88 0 -135 -43t-47 -122l2 -977q0 -266 -78 -387t-252 -121q-59 0 -97 26.5t-38 67.5q0 33 19.5 53.5t52.5 20.5q37 0 52 -16.5t28 -47.5q12 -31 25 -45 t44 -14q53 0 75.5 82t22.5 284v240q-68 -6 -149 -6q-158 0 -296 53t-227 174t-89 314z" />
<glyph unicode="&#xb7;" horiz-adv-x="399" d="M102 412q0 41 27 65.5t70 24.5q45 0 69.5 -23.5t24.5 -66.5q0 -45 -24.5 -71t-69.5 -26q-43 0 -70 26t-27 71z" />
<glyph unicode="&#xb8;" horiz-adv-x="475" d="M57 -481q0 27 18.5 45t47.5 18q27 0 39 -12t24 -37q12 -27 27.5 -40t46.5 -13q66 0 66 71q0 53 -38 95.5t-136 95.5q-29 14 -29 27q0 10 12 34q18 43 55 142q8 25 19 53l27 -2q-23 -78 -23 -105q0 -31 18.5 -49t69.5 -47t81 -65.5t30 -91.5q0 -78 -55.5 -139.5 t-163.5 -61.5q-61 0 -98.5 20.5t-37.5 61.5z" />
<glyph unicode="&#xb9;" horiz-adv-x="536" d="M64.5 1363q-5.5 9 3.5 13l243 115h4q6 0 11.5 -5t5.5 -9v-488q0 -70 7 -97.5t32.5 -35.5t89.5 -8q6 0 6 -11.5t-6 -11.5q-47 0 -76 2l-102 2l-111 -2q-29 -2 -80 -2q-4 0 -4 11.5t4 11.5q68 0 94.5 8t34.5 36t8 97v242q0 104 -4 133t-32 29q-23 0 -113 -39h-2 q-8 0 -13.5 9z" />
<glyph unicode="&#xba;" horiz-adv-x="649" d="M55 1020q0 88 43 148.5t108.5 91t133.5 30.5q78 0 136.5 -39t90 -102.5t31.5 -134.5q0 -76 -39 -140.5t-103.5 -101.5t-140.5 -37q-116 0 -188 83t-72 202zM68 616q0 10 3 19.5t5 9.5h497q4 0 7.5 -9t3.5 -20q0 -12 -3 -21t-8 -9h-495q-4 0 -7 10t-3 20zM156 1059 q0 -119 54 -206t136 -87q70 0 111 56.5t41 154.5q0 119 -55.5 199.5t-141.5 80.5q-70 0 -107.5 -52t-37.5 -146z" />
<glyph unicode="&#xbb;" horiz-adv-x="940" d="M123 94l239 316l-239 319q-2 4 5 10t9 0l367 -305q10 -10 10 -22q0 -14 -10 -25l-367 -305q0 -2 -4 -2t-8 5t-2 9zM440 94l240 316l-240 319q-2 4 5.5 10t9.5 0l368 -305q8 -8 8 -22q0 -16 -8 -25l-368 -305q0 -2 -4 -2t-8.5 5t-2.5 9z" />
<glyph unicode="&#xbc;" horiz-adv-x="1230" d="M65.5 1170.5q-4.5 9.5 2.5 11.5l243 116h4q6 0 11.5 -5t5.5 -9v-487q0 -70 7 -97.5t32.5 -36t89.5 -8.5q6 0 6 -11t-6 -11q-47 0 -76 2l-102 2l-111 -2q-29 -2 -80 -2q-4 0 -4 11t4 11q68 0 94.5 8.5t34.5 36t8 97.5v243q0 104 -4 132t-30 28q-25 0 -115 -39h-4 q-6 0 -10.5 9.5zM326 23l573 1261q0 2 6 2q10 0 28.5 -9t16.5 -13l-573 -1264q0 -2 -4 -2q-10 0 -29.5 10t-17.5 15zM728 198q-3 5 1 9l324 455q4 4 14 4q8 0 14 -2t6 -7v-426q25 0 91 5q4 0 4 -27q0 -29 -4 -29q-57 4 -91 4v-100q0 -29 4.5 -40t23 -16t63.5 -5q2 -5 2 -13 t-2 -12l-129 2l-164 -2q-2 0 -2 12.5t2 12.5q51 0 72.5 4t28.5 16t7 41v104q-139 4 -256 5q-6 0 -9 5zM805 229q-2 -6 4 -6q82 0 184 4v297z" />
<glyph unicode="&#xbd;" horiz-adv-x="1249" d="M65.5 1170.5q-4.5 9.5 2.5 11.5l243 116h4q6 0 11.5 -5t5.5 -9v-487q0 -70 7 -97.5t32.5 -36t89.5 -8.5q6 0 6 -11t-6 -11q-47 0 -76 2l-102 2l-111 -2q-29 -2 -80 -2q-4 0 -4 11t4 11q68 0 94.5 8.5t34.5 36t8 97.5v243q0 104 -4 132t-30 28q-25 0 -115 -39h-4 q-6 0 -10.5 9.5zM326 23l573 1261q0 2 6 2q10 0 28.5 -9t16.5 -13l-573 -1264q0 -2 -4 -2q-10 0 -29.5 10t-17.5 15zM793 512q45 156 196 156q82 0 125 -41t43 -105q0 -61 -43 -122.5t-121 -141.5q-57 -61 -85.5 -96t-41.5 -70q-2 -6 4 -6q137 0 191.5 6t75 25.5t32.5 72.5 q0 4 7.5 4.5t7.5 -4.5l-2 -180q0 -10 -8 -10h-373q-8 0 -6 12q14 51 44.5 101.5t80.5 117.5q66 86 97.5 146.5t31.5 126.5q0 57 -27 87t-72 30q-49 0 -85 -32t-48 -81q0 -6 -8 -6q-6 0 -12 3t-4 7z" />
<glyph unicode="&#xbe;" horiz-adv-x="1208" d="M45 762q-2 6 10.5 9t14.5 -5q16 -43 53 -75t94 -32q55 0 89 34t34 108q0 76 -42 119t-112 43q-6 0 -6 12t6 12q59 0 93 45t34 103q0 53 -28.5 84.5t-73.5 31.5t-82 -32.5t-47 -77.5q0 -6 -10 -6q-6 0 -11.5 3t-3.5 7q20 70 68.5 112.5t128.5 42.5q78 0 123 -41.5 t45 -105.5q0 -57 -38 -104.5t-95 -67.5q74 -12 117 -52t43 -108q0 -80 -56.5 -140t-156.5 -60q-147 0 -191 141zM303 23l574 1261q0 2 6 2q10 0 28.5 -9t16.5 -13l-574 -1264q0 -2 -4 -2q-10 0 -29.5 10t-17.5 15zM705.5 198q-3.5 5 1.5 9l323 455q4 4 14 4q8 0 14.5 -2 t6.5 -7v-426q25 0 90 5q4 0 4 -27q0 -29 -4 -29q-57 4 -90 4v-100q0 -29 4 -40t22.5 -16t63.5 -5q2 -5 2 -13t-2 -12l-129 2l-164 -2q-2 0 -2 12.5t2 12.5q51 0 72.5 4t29 16t7.5 41v104q-139 4 -256 5q-6 0 -9.5 5zM782 229q-2 -6 4 -6q83 0 185 4v297z" />
<glyph unicode="&#xbf;" horiz-adv-x="669" d="M53 -317q0 61 23.5 108t48.5 73.5t92 90.5q70 68 98.5 125t28.5 129q0 47 -12 110q-2 6 11 9.5t15 -2.5q23 -53 38.5 -126t15.5 -120q0 -63 -25 -105.5t-72 -91.5q-53 -53 -80.5 -101t-27.5 -126q0 -84 38 -137.5t97 -53.5q45 0 61.5 26t22.5 69q6 45 24.5 72.5 t61.5 27.5q35 0 55.5 -23.5t20.5 -52.5q0 -59 -74 -103t-176 -44q-123 0 -204 63.5t-81 182.5zM272 643q0 45 25 70.5t70 25.5q43 0 69.5 -25.5t26.5 -70.5q0 -41 -26.5 -65.5t-69.5 -24.5q-45 0 -70 23.5t-25 66.5z" />
<glyph unicode="&#xc0;" horiz-adv-x="1441" d="M-10 12.5q0 12.5 10 12.5q57 0 97 21.5t77 76.5t82 162l432 1011q4 6 17 7q12 0 14 -7l487 -1015q70 -150 119 -203t113 -53q8 0 8 -12.5t-8 -12.5q-39 0 -121 4t-121 4q-47 0 -117 -4q-66 -4 -102 -4q-8 0 -8 12.5t8 12.5q74 0 105.5 13t31.5 48q0 31 -29 92l-176 369 h-489l-121 -281q-27 -61 -27 -112q0 -129 199 -129q10 0 10 -12.5t-10 -12.5q-37 0 -106 4q-78 4 -136 4q-51 0 -125 -4q-61 -4 -104 -4q-10 0 -10 12.5zM438 590h451l-238 495zM453 1548q-17 4 16 21.5t77 32t52 8.5l53 -35q178 -117 264 -164q6 -2 7 -8q0 -6 -4.5 -10 t-10.5 -2q-229 102 -454 157z" />
<glyph unicode="&#xc1;" horiz-adv-x="1441" d="M-10 12.5q0 12.5 10 12.5q57 0 97 21.5t77 76.5t82 162l432 1011q4 6 17 7q12 0 14 -7l487 -1015q70 -150 119 -203t113 -53q8 0 8 -12.5t-8 -12.5q-39 0 -121 4t-121 4q-47 0 -117 -4q-66 -4 -102 -4q-8 0 -8 12.5t8 12.5q74 0 105.5 13t31.5 48q0 31 -29 92l-176 369 h-489l-121 -281q-27 -61 -27 -112q0 -129 199 -129q10 0 10 -12.5t-10 -12.5q-37 0 -106 4q-78 4 -136 4q-51 0 -125 -4q-61 -4 -104 -4q-10 0 -10 12.5zM438 590h451l-238 495zM492.5 1398q-3.5 9 3.5 13q63 35 127.5 75t81.5 50q74 49 110 72q10 6 53 -7.5t76 -32 t17 -20.5q-242 -61 -455 -159h-2q-8 0 -11.5 9z" />
<glyph unicode="&#xc2;" horiz-adv-x="1441" d="M-10 12.5q0 12.5 10 12.5q57 0 97 21.5t77 76.5t82 162l432 1011q4 6 17 7q12 0 14 -7l487 -1015q70 -150 119 -203t113 -53q8 0 8 -12.5t-8 -12.5q-39 0 -121 4t-121 4q-47 0 -117 -4q-66 -4 -102 -4q-8 0 -8 12.5t8 12.5q74 0 105.5 13t31.5 48q0 31 -29 92l-176 369 h-489l-121 -281q-27 -61 -27 -112q0 -129 199 -129q10 0 10 -12.5t-10 -12.5q-37 0 -106 4q-78 4 -136 4q-51 0 -125 -4q-61 -4 -104 -4q-10 0 -10 12.5zM438 590h451l-238 495zM469 1341l211 205q10 10 25 10q12 0 22 -10l209 -205q2 0 2 -4t-5 -8t-7 -2l-221 111 l-224 -111q-4 -2 -10 5t-2 9z" />
<glyph unicode="&#xc3;" horiz-adv-x="1441" d="M-10 12.5q0 12.5 10 12.5q57 0 97 21.5t77 76.5t82 162l432 1011q4 6 17 7q12 0 14 -7l487 -1015q70 -150 119 -203t113 -53q8 0 8 -12.5t-8 -12.5q-39 0 -121 4t-121 4q-47 0 -117 -4q-66 -4 -102 -4q-8 0 -8 12.5t8 12.5q74 0 105.5 13t31.5 48q0 31 -29 92l-176 369 h-489l-121 -281q-27 -61 -27 -112q0 -129 199 -129q10 0 10 -12.5t-10 -12.5q-37 0 -106 4q-78 4 -136 4q-51 0 -125 -4q-61 -4 -104 -4q-10 0 -10 12.5zM432 1473.5q-4 5.5 0 9.5q35 51 80 92t94 41q29 0 103 -21q94 -29 151 -28q35 0 57.5 13t45.5 42h2q6 0 11 -5t1 -9 q-53 -80 -88 -107.5t-76 -27.5q-27 0 -58.5 7t-62.5 17q-35 10 -72.5 18.5t-70.5 8.5t-51.5 -10.5t-31.5 -24.5t-20 -21h-4q-6 0 -10 5.5zM438 590h451l-238 495z" />
<glyph unicode="&#xc4;" horiz-adv-x="1441" d="M-10 12.5q0 12.5 10 12.5q57 0 97 21.5t77 76.5t82 162l432 1011q4 6 17 7q12 0 14 -7l487 -1015q70 -150 119 -203t113 -53q8 0 8 -12.5t-8 -12.5q-39 0 -121 4t-121 4q-47 0 -117 -4q-66 -4 -102 -4q-8 0 -8 12.5t8 12.5q74 0 105.5 13t31.5 48q0 31 -29 92l-176 369 h-489l-121 -281q-27 -61 -27 -112q0 -129 199 -129q10 0 10 -12.5t-10 -12.5q-37 0 -106 4q-78 4 -136 4q-51 0 -125 -4q-61 -4 -104 -4q-10 0 -10 12.5zM434 1552q0 41 24.5 64.5t67.5 23.5q41 0 64.5 -23.5t23.5 -64.5q0 -43 -23.5 -66.5t-64.5 -23.5q-43 0 -67.5 23.5 t-24.5 66.5zM438 590h451l-238 495zM793 1552q0 41 24.5 63.5t67.5 22.5t65.5 -22.5t22.5 -63.5q0 -43 -22.5 -66.5t-65.5 -23.5t-67.5 23.5t-24.5 66.5z" />
<glyph unicode="&#xc5;" horiz-adv-x="1441" d="M-10 12.5q0 12.5 10 12.5q57 0 97 21.5t77 76.5t82 162l432 1011q4 6 17 7q12 0 14 -7l487 -1015q70 -150 119 -203t113 -53q8 0 8 -12.5t-8 -12.5q-39 0 -121 4t-121 4q-47 0 -117 -4q-66 -4 -102 -4q-8 0 -8 12.5t8 12.5q74 0 105.5 13t31.5 48q0 31 -29 92l-176 369 h-489l-121 -281q-27 -61 -27 -112q0 -129 199 -129q10 0 10 -12.5t-10 -12.5q-37 0 -106 4q-78 4 -136 4q-51 0 -125 -4q-61 -4 -104 -4q-10 0 -10 12.5zM438 590h451l-238 495zM506 1522q0 74 64.5 115.5t142.5 41.5t132 -47t54 -114q0 -72 -62.5 -116t-142.5 -44 q-86 0 -137 49t-51 115zM608 1563q0 -68 33 -124.5t84 -56.5q37 0 53.5 24t16.5 75q0 72 -36 124t-87 52q-33 0 -48.5 -22.5t-15.5 -71.5z" />
<glyph unicode="&#xc6;" horiz-adv-x="1796" d="M-8 12.5q0 12.5 10 12.5q137 0 305 245l615 906q27 37 26 51q0 18 -33.5 23t-123.5 5q-4 0 -4.5 12.5t4.5 12.5h819q18 0 18 -18l4 -256q0 -6 -11 -6.5t-11 6.5q-6 92 -73 160.5t-161 68.5h-106q-92 0 -124 -25.5t-32 -97.5v-424h219q102 0 148.5 35t46.5 113q0 4 12 4 t12 -4l-2 -170q0 -59 2 -91l2 -102q0 -4 -12 -4t-12 4q0 90 -47 130t-154 40h-215v-469q0 -78 28.5 -103.5t119.5 -25.5h139q94 0 172 75t98 187q2 6 13.5 5t11.5 -7q-18 -133 -19 -274q0 -16 -7 -23.5t-25 -7.5h-846q-4 0 -4 12.5t4 12.5q76 0 110.5 10t47 39.5t12.5 91.5 v477h-346l-256 -381q-59 -90 -60 -145q0 -92 158 -92q10 0 10 -12.5t-10 -12.5q-39 0 -113 4q-82 4 -145 4q-47 0 -113 -4q-57 -4 -92 -4q-10 0 -10 12.5zM653 688h316v467z" />
<glyph unicode="&#xc7;" horiz-adv-x="1402" d="M100 645q0 193 96.5 342.5t267.5 232.5t384 83q123 0 212 -17.5t175 -58.5q14 -8 17 -15.5t5 -31.5l27 -250q0 -6 -11 -8t-13 6q-100 342 -424 342q-166 0 -293 -76t-198 -216t-71 -327q0 -180 77 -327.5t208 -231.5t287 -84q162 0 265 81t165 251q2 6 12 4t10 -6 l-20 -229q-4 -25 -7 -32t-18 -16q-104 -49 -198 -68.5t-211 -19.5h-4q-16 -59 -17 -82q0 -31 18.5 -49t69.5 -47t81 -65.5t30 -91.5q0 -78 -55.5 -139.5t-163.5 -61.5q-61 0 -98 20.5t-37 61.5q0 27 18.5 45t46.5 18q27 0 39 -12t25 -37q12 -27 27.5 -40t45.5 -13 q66 0 66 71q0 53 -38 95.5t-136 95.5q-29 14 -29 27q0 10 12 34q27 66 66 170q-207 6 -368.5 93.5t-252 237t-90.5 341.5z" />
<glyph unicode="&#xc8;" horiz-adv-x="1105" d="M84 12.5q0 12.5 4 12.5q76 0 110.5 10t47 39.5t12.5 91.5v948q0 61 -12.5 90t-47 40t-110.5 11q-4 0 -4 12.5t4 12.5h832q18 0 18 -18l4 -256q0 -6 -11 -6.5t-11 6.5q-12 111 -76 170t-166 59h-113q-96 0 -126.5 -26.5t-30.5 -102.5v-418h235q102 0 148.5 35t46.5 113 q0 4 12 4t12 -4l-2 -170q0 -59 2 -91l2 -102q0 -4 -12 -4t-12 4q0 90 -47.5 130t-153.5 40h-231v-469q0 -53 12 -79.5t43 -38t94 -11.5h145q109 0 180.5 68.5t98.5 193.5q0 6 12.5 5t12.5 -7q-18 -133 -19 -274q0 -16 -7 -23.5t-26 -7.5h-866q-4 0 -4 12.5zM348 1548 q-16 4 16.5 21.5t76.5 32t53 8.5l53 -35q178 -117 264 -164q6 -2 6 -8t-4 -10t-10 -2q-229 102 -455 157z" />
<glyph unicode="&#xc9;" horiz-adv-x="1105" d="M84 12.5q0 12.5 4 12.5q76 0 110.5 10t47 39.5t12.5 91.5v948q0 61 -12.5 90t-47 40t-110.5 11q-4 0 -4 12.5t4 12.5h832q18 0 18 -18l4 -256q0 -6 -11 -6.5t-11 6.5q-12 111 -76 170t-166 59h-113q-96 0 -126.5 -26.5t-30.5 -102.5v-418h235q102 0 148.5 35t46.5 113 q0 4 12 4t12 -4l-2 -170q0 -59 2 -91l2 -102q0 -4 -12 -4t-12 4q0 90 -47.5 130t-153.5 40h-231v-469q0 -53 12 -79.5t43 -38t94 -11.5h145q109 0 180.5 68.5t98.5 193.5q0 6 12.5 5t12.5 -7q-18 -133 -19 -274q0 -16 -7 -23.5t-26 -7.5h-866q-4 0 -4 12.5zM387 1398 q-2 9 4 13q92 47 219 133q66 45 101 66q10 6 54 -8.5t75.5 -32t15.5 -21.5q-127 -31 -232.5 -68.5t-222.5 -88.5l-4 -2q-8 0 -10 9z" />
<glyph unicode="&#xca;" horiz-adv-x="1105" d="M84 12.5q0 12.5 4 12.5q76 0 110.5 10t47 39.5t12.5 91.5v948q0 61 -12.5 90t-47 40t-110.5 11q-4 0 -4 12.5t4 12.5h832q18 0 18 -18l4 -256q0 -6 -11 -6.5t-11 6.5q-12 111 -76 170t-166 59h-113q-96 0 -126.5 -26.5t-30.5 -102.5v-418h235q102 0 148.5 35t46.5 113 q0 4 12 4t12 -4l-2 -170q0 -59 2 -91l2 -102q0 -4 -12 -4t-12 4q0 90 -47.5 130t-153.5 40h-231v-469q0 -53 12 -79.5t43 -38t94 -11.5h145q109 0 180.5 68.5t98.5 193.5q0 6 12.5 5t12.5 -7q-18 -133 -19 -274q0 -16 -7 -23.5t-26 -7.5h-866q-4 0 -4 12.5zM367 1421 l211 207q10 10 24 10q12 0 23 -10l209 -207q2 0 2 -4t-5.5 -8t-7.5 -2l-221 111l-223 -111q-4 -2 -10.5 5t-1.5 9z" />
<glyph unicode="&#xcb;" horiz-adv-x="1105" d="M84 12.5q0 12.5 4 12.5q76 0 110.5 10t47 39.5t12.5 91.5v948q0 61 -12.5 90t-47 40t-110.5 11q-4 0 -4 12.5t4 12.5h832q18 0 18 -18l4 -256q0 -6 -11 -6.5t-11 6.5q-12 111 -76 170t-166 59h-113q-96 0 -126.5 -26.5t-30.5 -102.5v-418h235q102 0 148.5 35t46.5 113 q0 4 12 4t12 -4l-2 -170q0 -59 2 -91l2 -102q0 -4 -12 -4t-12 4q0 90 -47.5 130t-153.5 40h-231v-469q0 -53 12 -79.5t43 -38t94 -11.5h145q109 0 180.5 68.5t98.5 193.5q0 6 12.5 5t12.5 -7q-18 -133 -19 -274q0 -16 -7 -23.5t-26 -7.5h-866q-4 0 -4 12.5zM330 1552 q0 41 24.5 64.5t67.5 23.5q41 0 64.5 -23.5t23.5 -64.5q0 -43 -23.5 -66.5t-64.5 -23.5q-43 0 -67.5 23.5t-24.5 66.5zM688 1552q0 41 24.5 63.5t67.5 22.5t65.5 -22.5t22.5 -63.5q0 -43 -22.5 -66.5t-65.5 -23.5t-67.5 23.5t-24.5 66.5z" />
<glyph unicode="&#xcc;" horiz-adv-x="684" d="M88 12.5q0 12.5 6 12.5q76 0 111 10t48 39.5t13 91.5v948q0 61 -13 90t-48 40t-111 11q-6 0 -6 12.5t6 12.5l105 -2q86 -4 141 -4q59 0 149 4l99 2q4 0 4 -12.5t-4 -12.5q-74 0 -110 -12t-48 -42t-12 -91v-944q0 -64 12 -92.5t47 -38.5t111 -10q4 0 4 -12.5t-4 -12.5 q-63 0 -101 2l-147 2l-141 -2q-39 -2 -105 -2q-6 0 -6 12.5zM90 1548q-16 4 16.5 21.5t76.5 32t53 8.5l53 -35q178 -117 264 -164q6 -2 6 -8t-4 -10t-10 -2q-230 102 -455 157z" />
<glyph unicode="&#xcd;" horiz-adv-x="684" d="M88 12.5q0 12.5 6 12.5q76 0 111 10t48 39.5t13 91.5v948q0 61 -13 90t-48 40t-111 11q-6 0 -6 12.5t6 12.5l105 -2q86 -4 141 -4q59 0 149 4l99 2q4 0 4 -12.5t-4 -12.5q-74 0 -110 -12t-48 -42t-12 -91v-944q0 -64 12 -92.5t47 -38.5t111 -10q4 0 4 -12.5t-4 -12.5 q-63 0 -101 2l-147 2l-141 -2q-39 -2 -105 -2q-6 0 -6 12.5zM129 1398q-2 9 4 13q92 47 219 133q66 45 101 66q10 6 54 -8.5t75.5 -32t15.5 -21.5q-127 -31 -232.5 -68.5t-222.5 -88.5l-4 -2q-8 0 -10 9z" />
<glyph unicode="&#xce;" horiz-adv-x="684" d="M88 12.5q0 12.5 6 12.5q76 0 111 10t48 39.5t13 91.5v948q0 61 -13 90t-48 40t-111 11q-6 0 -6 12.5t6 12.5l105 -2q86 -4 141 -4q59 0 149 4l99 2q4 0 4 -12.5t-4 -12.5q-74 0 -110 -12t-48 -42t-12 -91v-944q0 -64 12 -92.5t47 -38.5t111 -10q4 0 4 -12.5t-4 -12.5 q-63 0 -101 2l-147 2l-141 -2q-39 -2 -105 -2q-6 0 -6 12.5zM109 1421l210 207q10 10 25 10q12 0 23 -10l208 -207q2 0 3 -4q0 -4 -5.5 -8t-7.5 -2l-221 111l-223 -111q-4 -2 -10.5 5t-1.5 9z" />
<glyph unicode="&#xcf;" horiz-adv-x="684" d="M88 12.5q0 12.5 6 12.5q76 0 111 10t48 39.5t13 91.5v948q0 61 -13 90t-48 40t-111 11q-6 0 -6 12.5t6 12.5l105 -2q86 -4 141 -4q59 0 149 4l99 2q4 0 4 -12.5t-4 -12.5q-74 0 -110 -12t-48 -42t-12 -91v-944q0 -64 12 -92.5t47 -38.5t111 -10q4 0 4 -12.5t-4 -12.5 q-63 0 -101 2l-147 2l-141 -2q-39 -2 -105 -2q-6 0 -6 12.5zM102 1552q0 41 25 64.5t68 23.5t66.5 -23.5t23.5 -64.5q0 -43 -23.5 -66.5t-66.5 -23.5t-68 23.5t-25 66.5zM399 1552q0 41 25 63.5t68 22.5q41 0 64.5 -22.5t23.5 -63.5q0 -43 -24 -66.5t-64 -23.5 q-43 0 -68 23.5t-25 66.5z" />
<glyph unicode="&#xd0;" horiz-adv-x="1421" d="M66 12.5q0 12.5 4 12.5q76 0 110.5 10t48 39.5t13.5 91.5v448h-133q-8 0 -9 23q0 23 9 22h133v455q0 61 -12.5 90t-47.5 40t-110 11q-4 0 -4 12.5t4 12.5l102 -2q90 -4 141 -4q78 0 154 6q98 4 131 4q213 0 377 -82t254 -223t90 -317q0 -199 -93 -351.5t-252 -235.5 t-347 -83q-61 0 -142 6q-31 2 -74.5 4t-97.5 2l-141 -2q-39 -2 -104 -2q-4 0 -4 12.5zM391 188q0 -90 44 -126.5t173 -36.5q158 0 280 68.5t190.5 202.5t68.5 320q0 178 -65.5 322.5t-185.5 228.5t-278 84q-88 0 -135 -10t-69.5 -40t-22.5 -91v-451h279q8 0 8 -22 q0 -23 -8 -23h-279v-426z" />
<glyph unicode="&#xd1;" horiz-adv-x="1490" d="M72 1267.5q0 12.5 6 12.5l76 -2q25 -2 69 -2l96 2q16 2 43 2q16 0 23.5 -7t24.5 -32q25 -37 49 -67l774 -938v813q0 106 -37 156t-121 50q-4 0 -4 12.5t4 12.5l80 -2q66 -4 105 -4t104 4l84 2q6 0 6 -12.5t-6 -12.5q-84 0 -124 -50t-40 -156v-1074q0 -6 -10 -8t-14 2 l-955 1143l-6 8v-891q0 -106 39 -155t121 -49q6 0 6 -12.5t-6 -12.5q-49 0 -78 2l-105 2l-108 -2q-31 -2 -88 -2q-4 0 -4 12.5t4 12.5q88 0 128 49t40 155v945q-84 82 -170 81q-6 0 -6 12.5zM504 1442q33 51 79 93t95 42q31 0 102 -23q6 -2 55.5 -15t96.5 -13q35 0 56.5 13 t45.5 42h4q6 0 10.5 -5t0.5 -9q-53 -78 -88 -105.5t-76 -27.5q-35 0 -75 10l-48 12q-84 27 -141 27q-33 0 -51.5 -10.5t-32 -24.5t-19.5 -21h-2q-6 0 -11 5.5t-1 9.5z" />
<glyph unicode="&#xd2;" d="M100 639q0 211 106.5 361.5t273.5 226.5t341 76q195 0 342.5 -91.5t226 -241t78.5 -317.5q0 -186 -98 -341.5t-263 -246t-357 -90.5q-191 0 -339.5 89.5t-229.5 242t-81 332.5zM272 711q0 -193 70 -350.5t195 -249t284 -91.5q135 0 242.5 68t170 198t62.5 310 q0 190 -68.5 339.5t-195.5 233.5t-295 84q-219 0 -342 -144t-123 -398zM537 1548q-16 4 16.5 21.5t76.5 32t52 8.5l53 -35q178 -117 264 -164q6 -2 7 -8q0 -6 -4.5 -10t-10.5 -2q-229 102 -454 157z" />
<glyph unicode="&#xd3;" d="M100 639q0 211 106.5 361.5t273.5 226.5t341 76q195 0 342.5 -91.5t226 -241t78.5 -317.5q0 -186 -98 -341.5t-263 -246t-357 -90.5q-191 0 -339.5 89.5t-229.5 242t-81 332.5zM272 711q0 -193 70 -350.5t195 -249t284 -91.5q135 0 242.5 68t170 198t62.5 310 q0 190 -68.5 339.5t-195.5 233.5t-295 84q-219 0 -342 -144t-123 -398zM575.5 1398q-2.5 9 4.5 13q92 47 219 133q66 45 100 66q10 6 54 -8.5t76 -32t15 -21.5q-127 -31 -232 -68.5t-222 -88.5l-4 -2q-8 0 -10.5 9z" />
<glyph unicode="&#xd4;" d="M100 639q0 211 106.5 361.5t273.5 226.5t341 76q195 0 342.5 -91.5t226 -241t78.5 -317.5q0 -186 -98 -341.5t-263 -246t-357 -90.5q-191 0 -339.5 89.5t-229.5 242t-81 332.5zM272 711q0 -193 70 -350.5t195 -249t284 -91.5q135 0 242.5 68t170 198t62.5 310 q0 190 -68.5 339.5t-195.5 233.5t-295 84q-219 0 -342 -144t-123 -398zM555 1421l211 207q10 10 25 10q12 0 22 -10l209 -207q2 0 2 -4t-5 -8t-7 -2l-221 111l-224 -111q-4 -2 -10 5t-2 9z" />
<glyph unicode="&#xd5;" d="M100 639q0 211 106.5 361.5t273.5 226.5t341 76q195 0 342.5 -91.5t226 -241t78.5 -317.5q0 -186 -98 -341.5t-263 -246t-357 -90.5q-191 0 -339.5 89.5t-229.5 242t-81 332.5zM272 711q0 -193 70 -350.5t195 -249t284 -91.5q135 0 242.5 68t170 198t62.5 310 q0 190 -68.5 339.5t-195.5 233.5t-295 84q-219 0 -342 -144t-123 -398zM520 1442q33 51 79 93t95 42q31 0 103 -23q6 -2 55 -15t96 -13q35 0 56.5 13t46.5 42h4q6 0 10 -5t0 -9q-53 -78 -88 -105.5t-76 -27.5q-35 0 -75 10l-48 12q-84 27 -141 27q-33 0 -51.5 -10.5 t-31.5 -24.5t-19 -21h-3q-6 0 -11 5.5t-1 9.5z" />
<glyph unicode="&#xd6;" d="M100 639q0 211 106.5 361.5t273.5 226.5t341 76q195 0 342.5 -91.5t226 -241t78.5 -317.5q0 -186 -98 -341.5t-263 -246t-357 -90.5q-191 0 -339.5 89.5t-229.5 242t-81 332.5zM272 711q0 -193 70 -350.5t195 -249t284 -91.5q135 0 242.5 68t170 198t62.5 310 q0 190 -68.5 339.5t-195.5 233.5t-295 84q-219 0 -342 -144t-123 -398zM518 1552q0 41 24.5 64.5t67.5 23.5q41 0 64.5 -23.5t23.5 -64.5q0 -43 -23.5 -66.5t-64.5 -23.5q-43 0 -67.5 23.5t-24.5 66.5zM877 1552q0 41 24.5 63.5t67.5 22.5t65.5 -22.5t22.5 -63.5 q0 -43 -22.5 -66.5t-65.5 -23.5t-67.5 23.5t-24.5 66.5z" />
<glyph unicode="&#xd7;" horiz-adv-x="788" d="M123 176l213 213l-209 209q-8 6 22.5 36t34.5 25l211 -210l207 206q8 6 38 -23.5t24 -35.5l-207 -207l207 -209q6 -6 -24 -36.5t-38 -22.5l-207 207l-209 -209q-6 -6 -36.5 23.5t-26.5 33.5z" />
<glyph unicode="&#xd8;" horiz-adv-x="1585" d="M100 639q0 211 106.5 361.5t273.5 226.5t341 76q252 0 428 -156l142 143l4 2q10 0 22.5 -12t5.5 -16l-143 -146q90 -92 139 -214t49 -251q0 -186 -98 -341.5t-263 -246t-357 -90.5q-129 0 -239 42t-196 118l-149 -151l-4 -2q-6 0 -19.5 14t-7.5 20l148 150 q-88 90 -135.5 213t-47.5 260zM272 711q0 -255 115 -439l770 781q-76 96 -182.5 148t-237.5 52q-219 0 -342 -144t-123 -398zM414 236q74 -102 178 -159t229 -57q135 0 242.5 68t170 198t62.5 310q0 250 -114 422z" />
<glyph unicode="&#xd9;" horiz-adv-x="1431" d="M55 1267.5q0 12.5 4 12.5l103 -2q90 -4 141 -4q57 0 148 4l96 2q6 0 6 -12.5t-6 -12.5q-74 0 -109 -12t-47 -42t-12 -91v-580q0 -242 106.5 -367.5t300.5 -125.5q182 0 283.5 113.5t101.5 316.5v582q0 102 -46 154t-134 52q-6 0 -6 12.5t6 12.5l90 -2q70 -4 117 -4 q39 0 105 4l86 2q4 0 4 -12.5t-4 -12.5q-82 0 -123 -52t-41 -154v-580q0 -231 -133.5 -363.5t-356.5 -132.5q-152 0 -265.5 59.5t-177 169t-63.5 257.5v655q0 61 -12 90t-47 40t-111 11q-4 0 -4 12.5zM514 1548q-16 4 16.5 21.5t76.5 32t52 8.5l54 -35q178 -117 264 -164 q6 -2 6 -8t-4 -10t-10 -2q-230 102 -455 157z" />
<glyph unicode="&#xda;" horiz-adv-x="1431" d="M55 1267.5q0 12.5 4 12.5l103 -2q90 -4 141 -4q57 0 148 4l96 2q6 0 6 -12.5t-6 -12.5q-74 0 -109 -12t-47 -42t-12 -91v-580q0 -242 106.5 -367.5t300.5 -125.5q182 0 283.5 113.5t101.5 316.5v582q0 102 -46 154t-134 52q-6 0 -6 12.5t6 12.5l90 -2q70 -4 117 -4 q39 0 105 4l86 2q4 0 4 -12.5t-4 -12.5q-82 0 -123 -52t-41 -154v-580q0 -231 -133.5 -363.5t-356.5 -132.5q-152 0 -265.5 59.5t-177 169t-63.5 257.5v655q0 61 -12 90t-47 40t-111 11q-4 0 -4 12.5zM553 1398q-2 9 4 13q92 47 219 133q66 45 101 66q10 6 54 -8.5t75.5 -32 t15.5 -21.5q-127 -31 -232.5 -68.5t-222.5 -88.5l-4 -2q-8 0 -10 9z" />
<glyph unicode="&#xdb;" horiz-adv-x="1431" d="M55 1267.5q0 12.5 4 12.5l103 -2q90 -4 141 -4q57 0 148 4l96 2q6 0 6 -12.5t-6 -12.5q-74 0 -109 -12t-47 -42t-12 -91v-580q0 -242 106.5 -367.5t300.5 -125.5q182 0 283.5 113.5t101.5 316.5v582q0 102 -46 154t-134 52q-6 0 -6 12.5t6 12.5l90 -2q70 -4 117 -4 q39 0 105 4l86 2q4 0 4 -12.5t-4 -12.5q-82 0 -123 -52t-41 -154v-580q0 -231 -133.5 -363.5t-356.5 -132.5q-152 0 -265.5 59.5t-177 169t-63.5 257.5v655q0 61 -12 90t-47 40t-111 11q-4 0 -4 12.5zM532 1421l211 207q10 10 25 10q12 0 23 -10l208 -207q2 0 2 -4t-5 -8 t-7 -2l-221 111l-223 -111q-4 -2 -10.5 5t-2.5 9z" />
<glyph unicode="&#xdc;" horiz-adv-x="1431" d="M55 1267.5q0 12.5 4 12.5l103 -2q90 -4 141 -4q57 0 148 4l96 2q6 0 6 -12.5t-6 -12.5q-74 0 -109 -12t-47 -42t-12 -91v-580q0 -242 106.5 -367.5t300.5 -125.5q182 0 283.5 113.5t101.5 316.5v582q0 102 -46 154t-134 52q-6 0 -6 12.5t6 12.5l90 -2q70 -4 117 -4 q39 0 105 4l86 2q4 0 4 -12.5t-4 -12.5q-82 0 -123 -52t-41 -154v-580q0 -231 -133.5 -363.5t-356.5 -132.5q-152 0 -265.5 59.5t-177 169t-63.5 257.5v655q0 61 -12 90t-47 40t-111 11q-4 0 -4 12.5zM496 1552q0 41 24.5 64.5t67.5 23.5q41 0 64.5 -23.5t23.5 -64.5 q0 -43 -23.5 -66.5t-64.5 -23.5q-43 0 -67.5 23.5t-24.5 66.5zM854 1552q0 41 24.5 63.5t67.5 22.5t65.5 -22.5t22.5 -63.5q0 -43 -22.5 -66.5t-65.5 -23.5t-67.5 23.5t-24.5 66.5z" />
<glyph unicode="&#xdd;" horiz-adv-x="1251" d="M-6 1267.5q0 12.5 6 12.5l72 -2q49 -4 71 -4q70 0 181 4l114 2q4 0 4 -12.5t-4 -12.5q-100 0 -100 -47q0 -20 22 -53l322 -477l238 373q47 78 47 127q0 78 -111 77q-4 0 -4 12.5t4 12.5l98 -2q82 -4 148 -4q35 0 84 4l76 2q4 0 4 -12.5t-4 -12.5q-72 0 -151 -58 t-140 -159l-264 -409v-463q0 -63 12 -92t46 -39t109 -10q6 0 6.5 -12.5t-6.5 -12.5q-63 0 -98 2l-145 2l-142 -2q-39 -2 -104 -2q-4 0 -4 12.5t4 12.5q76 0 110.5 10t48 39.5t13.5 91.5v430l-332 491q-61 94 -112.5 131t-112.5 37q-6 0 -6 12.5zM440.5 1398q-2.5 9 3.5 13 q92 47 220 133q66 45 100 66q10 6 54 -8.5t76 -32t15 -21.5q-127 -31 -232.5 -68.5t-221.5 -88.5l-4 -2q-8 0 -10.5 9z" />
<glyph unicode="&#xde;" horiz-adv-x="1105" d="M84 12.5q0 12.5 4 12.5q72 0 104.5 10t45 39.5t12.5 91.5v948q0 61 -12.5 90t-45 40t-104.5 11q-4 0 -4 12.5t4 12.5l102 -2q82 -4 136 -4q72 0 178 4l131 2q6 0 6 -12.5t-6 -12.5q-104 0 -153.5 -12t-66 -43t-16.5 -96v-96q92 14 191 14q201 0 321.5 -82t120.5 -266 q0 -133 -66.5 -223.5t-169 -134.5t-208.5 -44q-49 0 -101 11q-6 0 -6 10q0 6 3 12t8 4q49 -8 73 -8q127 0 213 89t86 257q0 164 -89 254t-236 90q-63 0 -140 -14v-803q0 -66 16.5 -95.5t65.5 -41.5t154 -12q6 0 6 -12.5t-6 -12.5q-84 0 -131 2l-178 2l-136 -2 q-37 -2 -102 -2q-4 0 -4 12.5z" />
<glyph unicode="&#xdf;" horiz-adv-x="1067" d="M33 759.5q0 14.5 8 14.5q66 0 93.5 11.5t35.5 38t12 94.5q20 293 124 431t310 138q129 0 197 -59.5t68 -141.5q0 -68 -33 -119t-98 -116q-59 -63 -87 -105.5t-28 -95.5q0 -63 44 -122.5t134 -149.5q100 -100 151.5 -172t51.5 -154q0 -68 -37 -131.5t-105.5 -103.5 t-158.5 -40q-84 0 -134.5 37t-50.5 99q0 31 17.5 50t52.5 19q31 0 48.5 -19.5t35.5 -58.5q20 -43 39.5 -64.5t58.5 -21.5q51 0 83 39t32 99q0 78 -43 140t-129 144q-90 90 -135 154.5t-45 148.5q0 59 22.5 105.5t67.5 107.5q51 72 76.5 127.5t25.5 128.5q0 96 -42 170 t-138 74q-119 0 -181.5 -143.5t-62.5 -399.5v-747q0 -61 9.5 -91t36 -40t83.5 -10q6 0 6.5 -12.5t-6.5 -12.5l-190 2l-207 -2q-6 0 -6 12.5t6 12.5q61 0 90 10t39 39.5t10 91.5l-2 473q0 49 -9 70.5t-38 28.5t-94 7q-8 0 -8 14.5z" />
<glyph unicode="&#xe0;" horiz-adv-x="860" d="M109 127q0 66 52 110t167 87l219 79v136q0 123 -32 178t-93 55q-68 0 -102.5 -47t-45.5 -107q-12 -90 -84 -90q-37 0 -55 18.5t-18 45.5q0 51 64.5 102t155.5 84t161 33q84 0 130 -54.5t46 -156.5v-379q0 -70 19.5 -102.5t60.5 -32.5q37 0 94 25h4q8 0 10 -9.5t-6 -13.5 l-211 -100q-8 -4 -18 -4q-27 0 -48.5 35.5t-29.5 97.5l-103 -68q-49 -35 -89 -49t-85 -14q-78 0 -120.5 40t-42.5 101zM231 1489q-2 8 19 8q31 0 74 -11t45 -20l98 -491q2 -4 -8 -7t-13 3zM262 180q0 -49 32 -80.5t81 -31.5q41 0 92 30l80 49v13v215l-172 -70 q-55 -20 -84 -50t-29 -75z" />
<glyph unicode="&#xe1;" horiz-adv-x="860" d="M109 127q0 66 52 110t167 87l219 79v136q0 123 -32 178t-93 55q-68 0 -102.5 -47t-45.5 -107q-12 -90 -84 -90q-37 0 -55 18.5t-18 45.5q0 51 64.5 102t155.5 84t161 33q84 0 130 -54.5t46 -156.5v-379q0 -70 19.5 -102.5t60.5 -32.5q37 0 94 25h4q8 0 10 -9.5t-6 -13.5 l-211 -100q-8 -4 -18 -4q-27 0 -48.5 35.5t-29.5 97.5l-103 -68q-49 -35 -89 -49t-85 -14q-78 0 -120.5 40t-42.5 101zM262 180q0 -49 32 -80.5t81 -31.5q41 0 92 30l80 49v13v215l-172 -70q-55 -20 -84 -50t-29 -75zM408 975l100 491q2 8 46 19.5t73 11.5q20 0 18 -8 l-215 -518q0 -4 -8 -4q-6 0 -11 3t-3 5z" />
<glyph unicode="&#xe2;" horiz-adv-x="860" d="M109 127q0 66 52 110t167 87l219 79v136q0 123 -32 178t-93 55q-68 0 -102.5 -47t-45.5 -107q-12 -90 -84 -90q-37 0 -55 18.5t-18 45.5q0 51 64.5 102t155.5 84t161 33q84 0 130 -54.5t46 -156.5v-379q0 -70 19.5 -102.5t60.5 -32.5q37 0 94 25h4q8 0 10 -9.5t-6 -13.5 l-211 -100q-8 -4 -18 -4q-27 0 -48.5 35.5t-29.5 97.5l-103 -68q-49 -35 -89 -49t-85 -14q-78 0 -120.5 40t-42.5 101zM262 180q0 -49 32 -80.5t81 -31.5q41 0 92 30l80 49v13v215l-172 -70q-55 -20 -84 -50t-29 -75zM272 975l140 510q2 10 22 10q23 0 25 -10l137 -510 q4 -4 -7 -7t-14 3l-139 317l-141 -317q0 -4 -8 -4q-6 0 -11.5 3t-3.5 5z" />
<glyph unicode="&#xe3;" horiz-adv-x="860" d="M109 127q0 66 52 110t167 87l219 79v136q0 123 -32 178t-93 55q-68 0 -102.5 -47t-45.5 -107q-12 -90 -84 -90q-37 0 -55 18.5t-18 45.5q0 51 64.5 102t155.5 84t161 33q84 0 130 -54.5t46 -156.5v-379q0 -70 19.5 -102.5t60.5 -32.5q37 0 94 25h4q8 0 10 -9.5t-6 -13.5 l-211 -100q-8 -4 -18 -4q-27 0 -48.5 35.5t-29.5 97.5l-103 -68q-49 -35 -89 -49t-85 -14q-78 0 -120.5 40t-42.5 101zM162 984q-4 5 0 9q35 51 80 92t94 41q29 0 102 -20q94 -29 152 -29q35 0 57.5 13.5t44.5 42.5h2q6 0 11.5 -5.5t1.5 -9.5q-53 -80 -88 -107.5t-76 -27.5 q-27 0 -58.5 7t-62.5 18q-35 10 -73 18t-70 8q-33 0 -51.5 -10t-32 -24.5t-19.5 -20.5h-4q-6 0 -10 5zM262 180q0 -49 32 -80.5t81 -31.5q41 0 92 30l80 49v13v215l-172 -70q-55 -20 -84 -50t-29 -75z" />
<glyph unicode="&#xe4;" horiz-adv-x="860" d="M109 127q0 66 52 110t167 87l219 79v136q0 123 -32 178t-93 55q-68 0 -102.5 -47t-45.5 -107q-12 -90 -84 -90q-37 0 -55 18.5t-18 45.5q0 51 64.5 102t155.5 84t161 33q84 0 130 -54.5t46 -156.5v-379q0 -70 19.5 -102.5t60.5 -32.5q37 0 94 25h4q8 0 10 -9.5t-6 -13.5 l-211 -100q-8 -4 -18 -4q-27 0 -48.5 35.5t-29.5 97.5l-103 -68q-49 -35 -89 -49t-85 -14q-78 0 -120.5 40t-42.5 101zM164 1063q0 41 24.5 64.5t67.5 23.5q41 0 64.5 -23.5t23.5 -64.5q0 -43 -23.5 -66.5t-64.5 -23.5q-43 0 -67.5 23.5t-24.5 66.5zM262 180q0 -49 32 -80.5 t81 -31.5q41 0 92 30l80 49v13v215l-172 -70q-55 -20 -84 -50t-29 -75zM522 1063q0 41 24.5 63.5t67.5 22.5t65.5 -22.5t22.5 -63.5q0 -43 -22.5 -66.5t-65.5 -23.5t-67.5 23.5t-24.5 66.5z" />
<glyph unicode="&#xe5;" horiz-adv-x="860" d="M109 127q0 66 52 110t167 87l219 79v136q0 123 -32 178t-93 55q-68 0 -102.5 -47t-45.5 -107q-12 -90 -84 -90q-37 0 -55 18.5t-18 45.5q0 51 64.5 102t155.5 84t161 33q84 0 130 -54.5t46 -156.5v-379q0 -70 19.5 -102.5t60.5 -32.5q37 0 94 25h4q8 0 10 -9.5t-6 -13.5 l-211 -100q-8 -4 -18 -4q-27 0 -48.5 35.5t-29.5 97.5l-103 -68q-49 -35 -89 -49t-85 -14q-78 0 -120.5 40t-42.5 101zM229 1120q0 74 63.5 117t143.5 43q76 0 131.5 -48t55.5 -116q0 -72 -62.5 -115t-144.5 -43q-84 0 -135.5 48.5t-51.5 113.5zM262 180q0 -49 32 -80.5 t81 -31.5q41 0 92 30l80 49v13v215l-172 -70q-55 -20 -84 -50t-29 -75zM332 1161q0 -70 31.5 -125t85.5 -55q35 0 52 23.5t17 74.5q0 72 -36 125t-87 53q-33 0 -48 -23.5t-15 -72.5z" />
<glyph unicode="&#xe6;" horiz-adv-x="1212" d="M88 129q0 66 50 106.5t163 83.5l221 84q-4 141 -13 216t-33.5 114t-72.5 39q-76 0 -111.5 -48t-43.5 -128q0 -31 -17.5 -55.5t-60.5 -24.5q-76 0 -76 70q0 45 56.5 98t139.5 89t159 36q61 0 108 -36t68 -99q57 63 136 99t169 36q104 0 160.5 -64.5t56.5 -181.5 q0 -25 -5 -34t-20 -9l-456 -2q-4 -49 -4 -78q4 -391 270 -391q66 0 117 16.5t94 53.5h2q6 0 11 -7.5t1 -13.5q-70 -66 -138.5 -94.5t-154.5 -28.5q-215 0 -295 166l-135 -94q-49 -33 -92 -47t-88 -14q-82 0 -124 40t-42 103zM242 180q0 -51 29.5 -82.5t86.5 -31.5 q45 0 97 30l106 66q-31 74 -37 186v29l-178 -72q-55 -23 -79.5 -52.5t-24.5 -72.5zM670 549l321 6q0 102 -35.5 157.5t-95.5 55.5q-76 0 -125 -58.5t-65 -160.5z" />
<glyph unicode="&#xe7;" horiz-adv-x="845" d="M72 379q0 131 67.5 228.5t172 149.5t214.5 52q92 0 167 -37t75 -92q0 -31 -21.5 -51.5t-56.5 -20.5q-66 0 -98 74q-23 45 -52.5 65.5t-84.5 20.5q-111 0 -172.5 -89t-61.5 -237q0 -172 84 -281.5t256 -109.5q117 0 205 66h4q6 0 11 -6.5t-1 -10.5q-72 -66 -144.5 -95.5 t-162.5 -29.5h-12q-16 -59 -17 -84q0 -31 17.5 -48t70.5 -48q51 -29 81 -65.5t30 -91.5q0 -78 -55.5 -139.5t-163.5 -61.5q-61 0 -98 20.5t-37 61.5q0 27 18.5 45t46.5 18q27 0 39.5 -12t24.5 -37q12 -27 27.5 -40t46.5 -13q66 0 65 71q0 53 -38 95.5t-136 95.5 q-29 14 -29 27q0 10 13 34q29 72 65 174q-119 8 -200.5 68.5t-120.5 149t-39 184.5z" />
<glyph unicode="&#xe8;" horiz-adv-x="837" d="M72 371q0 121 58 221t158.5 158.5t221.5 58.5q119 0 181.5 -60.5t62.5 -173.5q0 -55 -25 -55l-506 -2q-4 -45 -4 -69q0 -178 84 -287t238 -109q61 0 103 15.5t99 50.5h2q6 0 11.5 -7.5t1.5 -13.5q-137 -123 -303 -123q-121 0 -207 54.5t-131 145.5t-45 196zM227 547 l373 8q0 104 -42 158.5t-118 54.5q-86 0 -141 -58.5t-72 -162.5zM264 1489q-2 8 19 8q31 0 73.5 -11t44.5 -20l99 -491q2 -4 -8.5 -7t-12.5 3z" />
<glyph unicode="&#xe9;" horiz-adv-x="837" d="M72 371q0 121 58 221t158.5 158.5t221.5 58.5q119 0 181.5 -60.5t62.5 -173.5q0 -55 -25 -55l-506 -2q-4 -45 -4 -69q0 -178 84 -287t238 -109q61 0 103 15.5t99 50.5h2q6 0 11.5 -7.5t1.5 -13.5q-137 -123 -303 -123q-121 0 -207 54.5t-131 145.5t-45 196zM227 547 l373 8q0 104 -42 158.5t-118 54.5q-86 0 -141 -58.5t-72 -162.5zM440 975l101 491q2 8 46 19.5t72 11.5q20 0 19 -8l-215 -518q0 -4 -8 -4q-6 0 -11.5 3t-3.5 5z" />
<glyph unicode="&#xea;" horiz-adv-x="837" d="M72 371q0 121 58 221t158.5 158.5t221.5 58.5q119 0 181.5 -60.5t62.5 -173.5q0 -55 -25 -55l-506 -2q-4 -45 -4 -69q0 -178 84 -287t238 -109q61 0 103 15.5t99 50.5h2q6 0 11.5 -7.5t1.5 -13.5q-137 -123 -303 -123q-121 0 -207 54.5t-131 145.5t-45 196zM227 547 l373 8q0 104 -42 158.5t-118 54.5q-86 0 -141 -58.5t-72 -162.5zM305 975l139 510q2 10 23 10q23 0 25 -10l137 -510q4 -4 -7.5 -7t-13.5 3l-139 317l-141 -317q-1 -4 -9 -4q-6 0 -11 3t-3 5z" />
<glyph unicode="&#xeb;" horiz-adv-x="837" d="M72 371q0 121 58 221t158.5 158.5t221.5 58.5q119 0 181.5 -60.5t62.5 -173.5q0 -55 -25 -55l-506 -2q-4 -45 -4 -69q0 -178 84 -287t238 -109q61 0 103 15.5t99 50.5h2q6 0 11.5 -7.5t1.5 -13.5q-137 -123 -303 -123q-121 0 -207 54.5t-131 145.5t-45 196zM197 1063 q0 41 24.5 64.5t67.5 23.5q41 0 64.5 -23.5t23.5 -64.5q0 -43 -23.5 -66.5t-64.5 -23.5q-43 0 -67.5 23.5t-24.5 66.5zM227 547l373 8q0 104 -42 158.5t-118 54.5q-86 0 -141 -58.5t-72 -162.5zM555 1063q0 41 24.5 63.5t67.5 22.5t65.5 -22.5t22.5 -63.5q0 -43 -22.5 -66.5 t-65.5 -23.5t-67.5 23.5t-24.5 66.5z" />
<glyph unicode="&#xec;" horiz-adv-x="555" d="M59.5 665.5q-4.5 10.5 3.5 14.5l273 127l8 2q6 0 13.5 -6t7.5 -12q0 -14 -2.5 -82t-2.5 -160v-383q0 -59 9.5 -89t36 -41t79.5 -11q6 0 6.5 -12.5t-6.5 -12.5q-51 0 -79 2l-111 2l-115 -2q-29 -2 -76 -2q-6 0 -6 12.5t6 12.5q76 0 100.5 27.5t24.5 113.5v381 q0 72 -14 104.5t-51 32.5q-35 0 -90 -29h-2q-8 0 -12.5 10.5zM78 1489q-2 8 18 8q31 0 74 -11t45 -20l98 -491q2 -4 -8 -7t-12 3z" />
<glyph unicode="&#xed;" horiz-adv-x="555" d="M59.5 665.5q-4.5 10.5 3.5 14.5l273 127l8 2q6 0 13.5 -6t7.5 -12q0 -14 -2.5 -82t-2.5 -160v-383q0 -59 9.5 -89t36 -41t79.5 -11q6 0 6.5 -12.5t-6.5 -12.5q-51 0 -79 2l-111 2l-115 -2q-29 -2 -76 -2q-6 0 -6 12.5t6 12.5q76 0 100.5 27.5t24.5 113.5v381 q0 72 -14 104.5t-51 32.5q-35 0 -90 -29h-2q-8 0 -12.5 10.5zM254 975l100 491q2 8 46 19.5t73 11.5q20 0 19 -8l-216 -518q0 -4 -8 -4q-6 0 -11 3t-3 5z" />
<glyph unicode="&#xee;" horiz-adv-x="555" d="M59.5 665.5q-4.5 10.5 3.5 14.5l273 127l8 2q6 0 13.5 -6t7.5 -12q0 -14 -2.5 -82t-2.5 -160v-383q0 -59 9.5 -89t36 -41t79.5 -11q6 0 6.5 -12.5t-6.5 -12.5q-51 0 -79 2l-111 2l-115 -2q-29 -2 -76 -2q-6 0 -6 12.5t6 12.5q76 0 100.5 27.5t24.5 113.5v381 q0 72 -14 104.5t-51 32.5q-35 0 -90 -29h-2q-8 0 -12.5 10.5zM119 975l139 510q2 10 23 10q23 0 24 -10l137 -510q4 -4 -7 -7t-13 3l-139 317l-142 -317q0 -4 -8 -4q-6 0 -11 3t-3 5z" />
<glyph unicode="&#xef;" horiz-adv-x="555" d="M41 1063q0 41 24.5 64.5t67.5 23.5t66.5 -23.5t23.5 -64.5q0 -43 -23.5 -66.5t-66.5 -23.5t-67.5 23.5t-24.5 66.5zM59.5 665.5q-4.5 10.5 3.5 14.5l273 127l8 2q6 0 13.5 -6t7.5 -12q0 -14 -2.5 -82t-2.5 -160v-383q0 -59 9.5 -89t36 -41t79.5 -11q6 0 6.5 -12.5 t-6.5 -12.5q-51 0 -79 2l-111 2l-115 -2q-29 -2 -76 -2q-6 0 -6 12.5t6 12.5q76 0 100.5 27.5t24.5 113.5v381q0 72 -14 104.5t-51 32.5q-35 0 -90 -29h-2q-8 0 -12.5 10.5zM338 1063q0 41 24.5 63.5t67.5 22.5q41 0 64.5 -22.5t23.5 -63.5q0 -43 -23.5 -66.5t-64.5 -23.5 q-43 0 -67.5 23.5t-24.5 66.5z" />
<glyph unicode="&#xf0;" horiz-adv-x="962" d="M59 381q0 141 67 239.5t166 147.5t200 49q115 0 206 -61q-55 188 -170 364l-272 -129h-2q-10 0 -17.5 21.5t1.5 25.5l262 125q-143 195 -316 303q-4 4 -4 7q0 4 5 9t12 3q227 -104 391 -281l211 101h2q10 0 18 -21.5t-2 -26.5l-192 -92q133 -153 205.5 -335.5 t72.5 -364.5q0 -246 -126 -369t-320 -123q-119 0 -209 55.5t-139.5 149.5t-49.5 203zM209 440q0 -117 38 -214t107.5 -155.5t159.5 -58.5q115 0 176.5 86t61.5 293q0 113 -23 230q-43 76 -110.5 116.5t-149.5 40.5q-113 0 -186.5 -89t-73.5 -249z" />
<glyph unicode="&#xf1;" horiz-adv-x="1062" d="M20.5 675q-4.5 9 4.5 13l245 119l13 2q20 0 39.5 -46t21.5 -122q150 176 313 176q113 0 175.5 -65.5t62.5 -186.5v-399q0 -59 9 -89t36 -41t80 -11q6 0 6 -12.5t-6 -12.5q-51 0 -80 2l-111 2l-110 -2q-29 -2 -78 -2q-6 0 -6 12.5t6 12.5q53 0 78.5 11t35 40.5t9.5 89.5 v326q0 119 -44 175t-140 56q-59 0 -122 -30.5t-114 -86.5v-440q0 -59 9 -89t36 -41t80 -11q6 0 6 -12.5t-6 -12.5q-51 0 -80 2l-110 2l-111 -2q-29 -2 -78 -2q-6 0 -6 12.5t6 12.5q53 0 79 11t35 40.5t9 89.5v401q0 68 -16.5 98.5t-53.5 30.5q-31 0 -108 -30h-2 q-8 0 -12.5 9zM285 984q-4 5 0 9q35 51 80 92t94 41q29 0 102 -20q94 -29 152 -29q35 0 57.5 13.5t44.5 42.5h2q6 0 11.5 -5.5t0.5 -9.5q-53 -80 -87.5 -107.5t-75.5 -27.5q-27 0 -59 7t-62 18q-35 10 -73 18t-71 8t-51 -10t-31.5 -24.5t-19.5 -20.5h-4q-6 0 -10 5z" />
<glyph unicode="&#xf2;" horiz-adv-x="985" d="M72 406q0 133 65.5 226t167 139t207.5 46q121 0 212 -59.5t140 -156.5t49 -206q0 -127 -59 -222t-159.5 -147.5t-219.5 -52.5q-121 0 -212 58.5t-141 158t-50 216.5zM225 471q0 -127 40 -232.5t109.5 -166t160.5 -60.5q106 0 164.5 80t58.5 244q0 129 -41 229.5 t-113 155.5t-160 55q-104 0 -161.5 -77.5t-57.5 -227.5zM291 1489q-2 8 18 8q31 0 74 -11t45 -20l98 -491q2 -4 -8 -7t-12 3z" />
<glyph unicode="&#xf3;" horiz-adv-x="985" d="M72 406q0 133 65.5 226t167 139t207.5 46q121 0 212 -59.5t140 -156.5t49 -206q0 -127 -59 -222t-159.5 -147.5t-219.5 -52.5q-121 0 -212 58.5t-141 158t-50 216.5zM225 471q0 -127 40 -232.5t109.5 -166t160.5 -60.5q106 0 164.5 80t58.5 244q0 129 -41 229.5 t-113 155.5t-160 55q-104 0 -161.5 -77.5t-57.5 -227.5zM467 975l100 491q2 8 46 19.5t73 11.5q20 0 19 -8l-216 -518q0 -4 -8 -4q-6 0 -11 3t-3 5z" />
<glyph unicode="&#xf4;" horiz-adv-x="985" d="M72 406q0 133 65.5 226t167 139t207.5 46q121 0 212 -59.5t140 -156.5t49 -206q0 -127 -59 -222t-159.5 -147.5t-219.5 -52.5q-121 0 -212 58.5t-141 158t-50 216.5zM225 471q0 -127 40 -232.5t109.5 -166t160.5 -60.5q106 0 164.5 80t58.5 244q0 129 -41 229.5 t-113 155.5t-160 55q-104 0 -161.5 -77.5t-57.5 -227.5zM332 975l139 510q2 10 23 10q23 0 24 -10l137 -510q4 -4 -7 -7t-13 3l-139 317l-142 -317q0 -4 -8 -4q-6 0 -11 3t-3 5z" />
<glyph unicode="&#xf5;" horiz-adv-x="985" d="M72 406q0 133 65.5 226t167 139t207.5 46q121 0 212 -59.5t140 -156.5t49 -206q0 -127 -59 -222t-159.5 -147.5t-219.5 -52.5q-121 0 -212 58.5t-141 158t-50 216.5zM221 984q-4 5 0 9q35 51 80 92t94 41q29 0 103 -20q94 -29 151 -29q35 0 57.5 13.5t45.5 42.5h2 q6 0 11 -5.5t1 -9.5q-53 -80 -88 -107.5t-76 -27.5q-27 0 -58.5 7t-62.5 18q-35 10 -72.5 18t-70.5 8t-51.5 -10t-31.5 -24.5t-19 -20.5h-5q-6 0 -10 5zM225 471q0 -127 40 -232.5t109.5 -166t160.5 -60.5q106 0 164.5 80t58.5 244q0 129 -41 229.5t-113 155.5t-160 55 q-104 0 -161.5 -77.5t-57.5 -227.5z" />
<glyph unicode="&#xf6;" horiz-adv-x="985" d="M72 406q0 133 65.5 226t167 139t207.5 46q121 0 212 -59.5t140 -156.5t49 -206q0 -127 -59 -222t-159.5 -147.5t-219.5 -52.5q-121 0 -212 58.5t-141 158t-50 216.5zM223 1063q0 41 24.5 64.5t67.5 23.5q41 0 64.5 -23.5t23.5 -64.5q0 -43 -23.5 -66.5t-64.5 -23.5 q-43 0 -67.5 23.5t-24.5 66.5zM225 471q0 -127 40 -232.5t109.5 -166t160.5 -60.5q106 0 164.5 80t58.5 244q0 129 -41 229.5t-113 155.5t-160 55q-104 0 -161.5 -77.5t-57.5 -227.5zM582 1063q0 41 24.5 63.5t67.5 22.5t65.5 -22.5t22.5 -63.5q0 -43 -22.5 -66.5 t-65.5 -23.5t-67.5 23.5t-24.5 66.5z" />
<glyph unicode="&#xf7;" horiz-adv-x="815" d="M59 391q0 14 2 26.5t7 12.5h677q4 0 7.5 -13.5t3.5 -27.5q0 -16 -3 -29.5t-8 -13.5h-675q-4 0 -7.5 14.5t-3.5 30.5zM309 74q0 41 25.5 65.5t71.5 24.5q45 0 68.5 -23.5t23.5 -66.5q0 -45 -23.5 -71t-68.5 -26q-46 0 -71.5 26t-25.5 71zM309 719q0 41 25.5 65.5 t71.5 24.5q45 0 68.5 -23.5t23.5 -66.5q0 -45 -23.5 -70.5t-68.5 -25.5q-46 0 -71.5 25.5t-25.5 70.5z" />
<glyph unicode="&#xf8;" horiz-adv-x="976" d="M72 406q0 133 65.5 226t167 139t207.5 46q154 0 260 -96l92 96h4q8 0 21.5 -11t7.5 -18l-94 -98q53 -57 81.5 -135t28.5 -160q0 -127 -59 -222t-159.5 -147.5t-219.5 -52.5q-156 0 -266 101l-103 -105l-4 -2q-8 0 -21 14.5t-7 20.5l102 107q-51 57 -77.5 135t-26.5 162z M225 471q0 -145 51 -260l408 420q-43 70 -104.5 107.5t-135.5 37.5q-104 0 -161.5 -77.5t-57.5 -227.5zM299 168q41 -74 102.5 -115t133.5 -41q106 0 164.5 80t58.5 244q0 145 -51 254z" />
<glyph unicode="&#xf9;" horiz-adv-x="1013" d="M13.5 686q-3.5 10 2.5 12l236 109l8 2q6 0 14.5 -6t8.5 -12v-482q0 -236 172 -235q61 0 124.5 30.5t116.5 85.5v357q0 78 -14 112.5t-47 34.5q-25 0 -68 -18h-4q-6 0 -8 10t4 12l236 109l8 2q6 0 13 -6t7 -12v-568q0 -70 16.5 -100.5t53.5 -30.5q31 0 104 27l4 2 q8 0 11.5 -10.5t-2.5 -14.5l-248 -116l-8 -3q-20 0 -39 49.5t-19 127.5q-154 -172 -319 -172q-104 0 -163.5 65.5t-59.5 185.5v314q0 78 -13.5 112.5t-46.5 34.5q-25 0 -67 -18h-4q-6 0 -9.5 10zM291 1489q-2 8 18 8q31 0 74 -11t45 -20l98 -491q2 -4 -8 -7t-12 3z" />
<glyph unicode="&#xfa;" horiz-adv-x="1013" d="M13.5 686q-3.5 10 2.5 12l236 109l8 2q6 0 14.5 -6t8.5 -12v-482q0 -236 172 -235q61 0 124.5 30.5t116.5 85.5v357q0 78 -14 112.5t-47 34.5q-25 0 -68 -18h-4q-6 0 -8 10t4 12l236 109l8 2q6 0 13 -6t7 -12v-568q0 -70 16.5 -100.5t53.5 -30.5q31 0 104 27l4 2 q8 0 11.5 -10.5t-2.5 -14.5l-248 -116l-8 -3q-20 0 -39 49.5t-19 127.5q-154 -172 -319 -172q-104 0 -163.5 65.5t-59.5 185.5v314q0 78 -13.5 112.5t-46.5 34.5q-25 0 -67 -18h-4q-6 0 -9.5 10zM467 975l100 491q2 8 46 19.5t73 11.5q20 0 19 -8l-216 -518q0 -4 -8 -4 q-6 0 -11 3t-3 5z" />
<glyph unicode="&#xfb;" horiz-adv-x="1013" d="M13.5 686q-3.5 10 2.5 12l236 109l8 2q6 0 14.5 -6t8.5 -12v-482q0 -236 172 -235q61 0 124.5 30.5t116.5 85.5v357q0 78 -14 112.5t-47 34.5q-25 0 -68 -18h-4q-6 0 -8 10t4 12l236 109l8 2q6 0 13 -6t7 -12v-568q0 -70 16.5 -100.5t53.5 -30.5q31 0 104 27l4 2 q8 0 11.5 -10.5t-2.5 -14.5l-248 -116l-8 -3q-20 0 -39 49.5t-19 127.5q-154 -172 -319 -172q-104 0 -163.5 65.5t-59.5 185.5v314q0 78 -13.5 112.5t-46.5 34.5q-25 0 -67 -18h-4q-6 0 -9.5 10zM332 975l139 510q2 10 23 10q23 0 24 -10l137 -510q4 -4 -7 -7t-13 3 l-139 317l-142 -317q0 -4 -8 -4q-6 0 -11 3t-3 5z" />
<glyph unicode="&#xfc;" horiz-adv-x="1013" d="M13.5 686q-3.5 10 2.5 12l236 109l8 2q6 0 14.5 -6t8.5 -12v-482q0 -236 172 -235q61 0 124.5 30.5t116.5 85.5v357q0 78 -14 112.5t-47 34.5q-25 0 -68 -18h-4q-6 0 -8 10t4 12l236 109l8 2q6 0 13 -6t7 -12v-568q0 -70 16.5 -100.5t53.5 -30.5q31 0 104 27l4 2 q8 0 11.5 -10.5t-2.5 -14.5l-248 -116l-8 -3q-20 0 -39 49.5t-19 127.5q-154 -172 -319 -172q-104 0 -163.5 65.5t-59.5 185.5v314q0 78 -13.5 112.5t-46.5 34.5q-25 0 -67 -18h-4q-6 0 -9.5 10zM223 1063q0 41 24.5 64.5t67.5 23.5q41 0 64.5 -23.5t23.5 -64.5 q0 -43 -23.5 -66.5t-64.5 -23.5q-43 0 -67.5 23.5t-24.5 66.5zM582 1063q0 41 24.5 63.5t67.5 22.5t65.5 -22.5t22.5 -63.5q0 -43 -22.5 -66.5t-65.5 -23.5t-67.5 23.5t-24.5 66.5z" />
<glyph unicode="&#xfd;" horiz-adv-x="888" d="M-74 -492q0 33 21.5 50.5t50.5 17.5q27 0 44 -7t36 -20q4 -2 23.5 -12t48.5 -10q49 0 92 42t92 139t117 274l-316 639q-47 90 -71.5 117.5t-63.5 27.5q-4 0 -4 12.5t4 12.5q47 0 72 -3l71 -2l133 2q31 2 82 3q4 0 4 -12.5t-4 -12.5q-57 0 -86.5 -10.5t-29.5 -34.5 q0 -10 10 -35l264 -545l158 453q16 49 16 80q0 49 -36 70.5t-115 21.5q-4 0 -4 12.5t4 12.5q55 0 84 -3l122 -2l74 2q23 2 68 3q6 0 6 -12.5t-6 -12.5q-55 0 -93 -39t-73 -129l-246 -655q-76 -199 -142.5 -310.5t-137 -159.5t-160.5 -48q-49 0 -79 21.5t-30 61.5zM432 975 l100 491q2 8 46.5 19.5t72.5 11.5q20 0 19 -8l-215 -518q-1 -4 -9 -4q-6 0 -11 3t-3 5z" />
<glyph unicode="&#xfe;" horiz-adv-x="1007" d="M-16 1342.5q-4 11.5 4 13.5l264 127q4 2 10 2t13.5 -6t7.5 -13v-817q86 86 167.5 127t167.5 41q84 0 157 -45t117 -131t44 -201q0 -156 -68.5 -261t-172 -155.5t-203.5 -50.5q-61 0 -110.5 10.5t-98.5 36.5v-417q0 -61 15 -90t56 -40.5t129 -11.5q6 0 6 -12t-6 -12 q-74 0 -114 2l-150 2l-113 -2q-31 -2 -79 -2q-4 0 -4 12t4 12q55 0 81.5 11.5t36 40t9.5 90.5v1618q0 74 -14.5 106.5t-49.5 32.5q-31 0 -92 -29h-2q-8 0 -12 11.5zM283 143q53 -61 114.5 -93t151.5 -32q108 0 175 94.5t67 264.5q0 168 -76 262t-191 94q-70 0 -127 -31.5 t-114 -91.5v-467z" />
<glyph unicode="&#xff;" horiz-adv-x="888" d="M-74 -492q0 33 21.5 50.5t50.5 17.5q27 0 44 -7t36 -20q4 -2 23.5 -12t48.5 -10q49 0 92 42t92 139t117 274l-316 639q-47 90 -71.5 117.5t-63.5 27.5q-4 0 -4 12.5t4 12.5q47 0 72 -3l71 -2l133 2q31 2 82 3q4 0 4 -12.5t-4 -12.5q-57 0 -86.5 -10.5t-29.5 -34.5 q0 -10 10 -35l264 -545l158 453q16 49 16 80q0 49 -36 70.5t-115 21.5q-4 0 -4 12.5t4 12.5q55 0 84 -3l122 -2l74 2q23 2 68 3q6 0 6 -12.5t-6 -12.5q-55 0 -93 -39t-73 -129l-246 -655q-76 -199 -142.5 -310.5t-137 -159.5t-160.5 -48q-49 0 -79 21.5t-30 61.5zM188 1063 q0 41 25 64.5t68 23.5q41 0 64.5 -23.5t23.5 -64.5q0 -43 -23.5 -66.5t-64.5 -23.5q-43 0 -68 23.5t-25 66.5zM547 1063q0 41 24.5 63.5t67.5 22.5t65.5 -22.5t22.5 -63.5q0 -43 -22.5 -66.5t-65.5 -23.5t-67.5 23.5t-24.5 66.5z" />
<glyph unicode="&#x152;" horiz-adv-x="1880" d="M100 616q0 199 96.5 350.5t258 234.5t354.5 83q90 0 141 -2l160 -2h582q20 0 20 -18l4 -256q0 -6 -11 -6.5t-13 6.5q-6 92 -72 160.5t-160 68.5h-123q-94 0 -124.5 -24.5t-30.5 -98.5v-424h235q102 0 148.5 35t46.5 113q0 4 11 4t11 -4l-2 -170q0 -59 2 -91l2 -102 q0 -4 -11 -4t-11 4q0 90 -48 130t-155 40h-229v-469q0 -76 28.5 -102.5t118.5 -26.5h156q94 0 171 75t99 187q0 6 11.5 5t11.5 -7q-18 -166 -19 -274q0 -16 -6 -23.5t-24 -7.5h-617q-43 0 -141 -4q-102 -4 -150 -4q-209 0 -373.5 82t-256 224t-91.5 318zM272 662 q0 -178 68 -323.5t190.5 -229.5t286.5 -84q86 0 131 10t64.5 40.5t19.5 92.5v928q0 59 -16.5 92t-59.5 48t-127 15q-164 0 -289.5 -68.5t-196.5 -201.5t-71 -319z" />
<glyph unicode="&#x153;" horiz-adv-x="1421" d="M49 406q0 133 63.5 226t160 139t196.5 46q104 0 182 -50t119 -136q61 82 151.5 130t194.5 48q119 0 178.5 -57.5t59.5 -182.5q0 -27 -5.5 -38t-17.5 -11l-508 -2q-6 -43 -6 -94q0 -172 86 -271.5t230 -99.5q133 0 215 66h2q6 0 11 -7.5t1 -13.5q-139 -123 -303 -123 q-113 0 -195 42t-129 118q-53 -78 -131 -120t-172 -42q-113 0 -200 59.5t-135 158t-48 215.5zM197 465q0 -123 37.5 -227.5t104.5 -166t148 -61.5q88 0 140.5 88t52.5 250q0 195 -77 312.5t-200 117.5q-96 0 -151 -81t-55 -232zM829 547l369 8q6 213 -151 213 q-82 0 -138.5 -58.5t-79.5 -162.5z" />
<glyph unicode="&#x178;" horiz-adv-x="1251" d="M-6 1267.5q0 12.5 6 12.5l72 -2q49 -4 71 -4q70 0 181 4l114 2q4 0 4 -12.5t-4 -12.5q-100 0 -100 -47q0 -20 22 -53l322 -477l238 373q47 78 47 127q0 78 -111 77q-4 0 -4 12.5t4 12.5l98 -2q82 -4 148 -4q35 0 84 4l76 2q4 0 4 -12.5t-4 -12.5q-72 0 -151 -58 t-140 -159l-264 -409v-463q0 -63 12 -92t46 -39t109 -10q6 0 6.5 -12.5t-6.5 -12.5q-63 0 -98 2l-145 2l-142 -2q-39 -2 -104 -2q-4 0 -4 12.5t4 12.5q76 0 110.5 10t48 39.5t13.5 91.5v430l-332 491q-61 94 -112.5 131t-112.5 37q-6 0 -6 12.5zM383 1552q0 41 24.5 64.5 t67.5 23.5q41 0 64.5 -23.5t23.5 -64.5q0 -43 -23.5 -66.5t-64.5 -23.5q-43 0 -67.5 23.5t-24.5 66.5zM741 1552q0 41 25 63.5t68 22.5t65.5 -22.5t22.5 -63.5q0 -43 -22.5 -66.5t-65.5 -23.5t-68 23.5t-25 66.5z" />
<glyph unicode="&#x2c6;" horiz-adv-x="536" d="M119 975l139 510q2 10 23 10q23 0 24 -10l137 -510q4 -4 -7 -7t-13 3l-139 317l-142 -317q0 -4 -8 -4q-6 0 -11 3t-3 5z" />
<glyph unicode="&#x2dc;" horiz-adv-x="786" d="M123 984q-4 5 0 9q35 51 80 92t94 41q29 0 102 -20q94 -29 152 -29q35 0 57.5 13.5t44.5 42.5h2q6 0 11.5 -5.5t1.5 -9.5q-53 -80 -88 -107.5t-76 -27.5q-27 0 -58.5 7t-62.5 18q-35 10 -73 18t-70 8q-33 0 -51.5 -10t-32 -24.5t-19.5 -20.5h-4q-6 0 -10 5z" />
<glyph unicode="&#x2000;" horiz-adv-x="839" />
<glyph unicode="&#x2001;" horiz-adv-x="1679" />
<glyph unicode="&#x2002;" horiz-adv-x="839" />
<glyph unicode="&#x2003;" horiz-adv-x="1679" />
<glyph unicode="&#x2004;" horiz-adv-x="559" />
<glyph unicode="&#x2005;" horiz-adv-x="419" />
<glyph unicode="&#x2006;" horiz-adv-x="279" />
<glyph unicode="&#x2007;" horiz-adv-x="279" />
<glyph unicode="&#x2008;" horiz-adv-x="209" />
<glyph unicode="&#x2009;" horiz-adv-x="335" />
<glyph unicode="&#x200a;" horiz-adv-x="93" />
<glyph unicode="&#x2010;" horiz-adv-x="661" d="M55 385q0 39 6 39l535 96q4 2 7 -12t3 -31q0 -16 -3 -30.5t-7 -16.5l-530 -96q-5 -2 -8 15.5t-3 35.5z" />
<glyph unicode="&#x2011;" horiz-adv-x="661" d="M55 385q0 39 6 39l535 96q4 2 7 -12t3 -31q0 -16 -3 -30.5t-7 -16.5l-530 -96q-5 -2 -8 15.5t-3 35.5z" />
<glyph unicode="&#x2012;" horiz-adv-x="661" d="M55 385q0 39 6 39l535 96q4 2 7 -12t3 -31q0 -16 -3 -30.5t-7 -16.5l-530 -96q-5 -2 -8 15.5t-3 35.5z" />
<glyph unicode="&#x2013;" horiz-adv-x="1054" d="M59 391q0 14 2 26.5t7 12.5h917q4 0 7 -13.5t3 -27.5q0 -16 -3 -29.5t-7 -13.5h-915q-4 0 -7.5 14.5t-3.5 30.5z" />
<glyph unicode="&#x2014;" horiz-adv-x="1699" d="M59 391q0 14 2 26.5t7 12.5h1562q4 0 7 -13.5t3 -27.5q0 -16 -3 -29.5t-7 -13.5h-1560q-4 0 -7.5 14.5t-3.5 30.5z" />
<glyph unicode="&#x2018;" horiz-adv-x="348" d="M43 1014q0 84 38 155.5t112 143.5q2 2 6 2q6 0 10 -6t0 -11q-100 -102 -100 -241q0 -57 20 -84q18 31 66 31q38 0 62 -24t24 -62q0 -43 -27 -66t-76 -23q-63 0 -99 48.5t-36 136.5z" />
<glyph unicode="&#x2019;" horiz-adv-x="323" d="M43 1204q0 43 26.5 65.5t75.5 22.5q64 0 100 -48t36 -136q0 -84 -38 -155.5t-112 -143.5q-2 -2 -6 -2q-6 0 -10 6t0 10q100 102 100 242q0 57 -20 84q-18 -31 -66 -31q-39 0 -62.5 23.5t-23.5 62.5z" />
<glyph unicode="&#x201a;" horiz-adv-x="323" d="M43 70q0 43 26.5 65.5t75.5 22.5q64 0 100 -48.5t36 -136.5q0 -84 -38 -155.5t-112 -143.5q-2 -2 -6 -2q-6 0 -10 6.5t0 10.5q100 102 100 241q0 57 -20 84q-18 -31 -66 -30q-39 0 -62.5 23.5t-23.5 62.5z" />
<glyph unicode="&#x201c;" horiz-adv-x="634" d="M43 1014q0 84 38 155.5t112 143.5q2 2 6 2q6 0 10 -6t0 -11q-100 -102 -100 -241q0 -57 20 -84q18 31 66 31q38 0 62 -24t24 -62q0 -43 -27 -66t-76 -23q-63 0 -99 48.5t-36 136.5zM354 1014q0 84 38 155.5t112 143.5q2 2 6 2q6 0 10 -6t0 -11q-100 -102 -100 -241 q0 -57 20 -84q18 31 66 31q39 0 62.5 -24t23.5 -62q0 -43 -26.5 -66t-76.5 -23q-63 0 -99 48.5t-36 136.5z" />
<glyph unicode="&#x201d;" horiz-adv-x="634" d="M43 1204q0 43 26.5 65.5t75.5 22.5q64 0 100 -48t36 -136q0 -84 -38 -155.5t-112 -143.5q-2 -2 -6 -2q-6 0 -10 6t0 10q100 102 100 242q0 57 -20 84q-18 -31 -66 -31q-39 0 -62.5 23.5t-23.5 62.5zM354 1204q0 43 27 65.5t76 22.5q63 0 99 -48t36 -136q0 -84 -38 -155.5 t-112 -143.5q-2 -2 -6 -2q-6 0 -10 6t0 10q100 102 100 242q0 57 -20 84q-18 -31 -66 -31q-39 0 -62.5 23.5t-23.5 62.5z" />
<glyph unicode="&#x201e;" horiz-adv-x="643" d="M43 70q0 43 26.5 65.5t75.5 22.5q64 0 100 -48.5t36 -136.5q0 -84 -38 -155.5t-112 -143.5q-2 -2 -6 -2q-6 0 -10 6.5t0 10.5q100 102 100 241q0 57 -20 84q-18 -31 -66 -30q-39 0 -62.5 23.5t-23.5 62.5zM354 70q0 43 27 65.5t76 22.5q63 0 99 -48.5t36 -136.5 q0 -84 -38 -155.5t-112 -143.5q-2 -2 -6 -2q-6 0 -10 6.5t0 10.5q100 102 100 241q0 57 -20 84q-18 -31 -66 -30q-39 0 -62.5 23.5t-23.5 62.5z" />
<glyph unicode="&#x2022;" horiz-adv-x="632" d="M109 508q0 84 61 144.5t147 60.5q84 0 144.5 -60.5t60.5 -144.5q0 -86 -59.5 -146.5t-145.5 -60.5t-147 60.5t-61 146.5z" />
<glyph unicode="&#x2026;" horiz-adv-x="1366" d="M109 74q0 41 26.5 65.5t69.5 24.5q45 0 69.5 -23.5t24.5 -66.5q0 -45 -24.5 -71t-69.5 -26q-43 0 -69.5 26t-26.5 71zM588 74q0 41 26.5 65.5t69.5 24.5q45 0 69.5 -23.5t24.5 -66.5q0 -45 -24.5 -71t-69.5 -26q-43 0 -69.5 26t-26.5 71zM1067 74q0 41 26.5 65.5 t69.5 24.5q45 0 69.5 -23.5t24.5 -66.5q0 -45 -24.5 -71t-69.5 -26q-43 0 -69.5 26t-26.5 71z" />
<glyph unicode="&#x202f;" horiz-adv-x="335" />
<glyph unicode="&#x2039;" horiz-adv-x="622" d="M111 412q0 14 8 22l366 305q0 2 4 2t8.5 -5t2.5 -7l-240 -317l240 -318q2 -4 -5.5 -11t-9.5 -1l-366 305q-8 8 -8 25z" />
<glyph unicode="&#x203a;" horiz-adv-x="622" d="M123 94l239 316l-239 319q-2 4 5 10t9 0l367 -305q10 -10 10 -22q0 -14 -10 -25l-367 -305q0 -2 -4 -2t-8 5t-2 9z" />
<glyph unicode="&#x205f;" horiz-adv-x="419" />
<glyph unicode="&#x20ac;" horiz-adv-x="1202" d="M88 541q0 8 4 15t10 7h95q18 121 96 216t199.5 149.5t267.5 54.5q90 0 169 -16.5t132 -51.5q12 -6 22.5 -14t10.5 -18l-4 -17l-78 -180q0 -2 -6 -2t-12.5 3t-4.5 9q6 23 6 43q0 90 -85 151.5t-197 61.5q-96 0 -176 -50t-130.5 -139t-58.5 -200h610q8 0 9 -10 q0 -10 -9.5 -23.5t-19.5 -13.5h-836q-6 0 -10 7t-4 18zM90 391q0 8 4 15.5t10 7.5h799q8 0 8 -11q0 -10 -9 -23t-17 -13h-523q35 -158 133.5 -260.5t249.5 -102.5q121 0 209 64.5t133 195.5q1 4 9 4q6 0 11 -2t5 -6l-29 -192q-4 -16 -8 -22.5t-20 -14.5q-160 -55 -330 -56 q-227 0 -357 113t-167 279h-97q-6 0 -10 7t-4 17z" />
<glyph unicode="&#x2122;" horiz-adv-x="1480" d="M59 1124q4 23 8.5 80.5t4.5 100.5q0 6 12 7t12 -7q0 -14 14.5 -18.5t41.5 -4.5l184 -2l164 2q41 0 59.5 5t22.5 24q2 4 13 4t11 -4q-8 -172 -8 -187q0 -4 -11.5 -4t-11.5 4q0 72 -25.5 101.5t-84.5 29.5q-45 0 -59.5 -15t-14.5 -58v-379q0 -45 17.5 -59.5t78.5 -14.5 q4 0 4.5 -12t-4.5 -12l-151 2l-148 -2q-2 0 -2 12t2 12q59 0 78 14.5t19 59.5v381q0 45 -14.5 58t-59.5 13q-61 0 -90 -28.5t-37 -102.5q0 -4 -12.5 -4t-12.5 4zM633 717q0 12 2 12q45 0 66.5 24.5t23.5 77.5l12 375q-37 49 -90 49q-4 0 -4 12.5t4 12.5q18 0 36.5 -2 t31.5 -2q23 0 40 2t25 2q16 0 30.5 -13.5t33.5 -49.5l192 -383l183 413q4 14 15 23.5t23 9.5q6 0 21.5 -2t42.5 -2q29 0 49.5 2t38.5 2q4 0 4 -12.5t-4 -12.5q-49 0 -70.5 -16t-19.5 -68l12 -368q2 -45 17.5 -59.5t66.5 -14.5q4 0 4 -12t-4 -12l-133 2l-141 -2q-2 0 -2 12 t2 12q63 0 81.5 14.5t14.5 59.5l-12 371l-203 -459q-2 -6 -12.5 -6t-14.5 6l-223 432l-10 -316q-2 -53 14.5 -77.5t52.5 -24.5q4 0 4.5 -12t-4.5 -12l-92 2l-102 -2q-2 0 -2 12z" />
<glyph unicode="&#x25fc;" horiz-adv-x="788" d="M0 0v788h788v-788h-788z" />
</font>
</defs>
</svg>
